<svg width="390" height="844" viewBox="0 0 390 844" fill="none" xmlns="http://www.w3.org/2000/svg">
<g clip-path="url(#clip0_4939_56279)">
<rect width="390" height="844" fill="white"/>
<g filter="url(#filter0_b_4939_56279)">
<rect width="390" height="112" transform="translate(1)" fill="white"/>
<path d="M17 52C17 46.4772 21.4772 42 27 42H365C370.523 42 375 46.4772 375 52H17Z" fill="white"/>
<path d="M17 52C17 46.4772 21.4772 42 27 42H365C370.523 42 375 46.4772 375 52H17Z" fill="black" fill-opacity="0.35"/>
<path fill-rule="evenodd" clip-rule="evenodd" d="M391 0H1V66C1 62.2774 1 60.4162 1.48943 58.9098C2.47861 55.8655 4.86545 53.4786 7.90983 52.4894C9.41616 52 11.2774 52 15 52H17C17 46.4772 21.4772 42 27 42H365C370.523 42 375 46.4772 375 52H377C380.723 52 382.584 52 384.09 52.4894C387.135 53.4786 389.521 55.8655 390.511 58.9098C391 60.4162 391 62.2774 391 66V0Z" fill="black"/>
<g clip-path="url(#clip1_4939_56279)">
<path d="M86 -2H305C302.894 -1.39731 301.418 0.495246 301.345 2.68446L301.317 3.5618C301.317 17.0587 290.375 28 276.878 28H114.122C100.625 28 89.6835 17.0587 89.6835 3.5618L89.6545 2.68447C89.5823 0.49525 88.1059 -1.39731 86 -2Z" fill="black"/>
<path opacity="0.35" d="M352.5 20.0006C352.5 18.804 353.47 17.834 354.667 17.834H371.333C372.53 17.834 373.5 18.804 373.5 20.0007V26.0007C373.5 27.1973 372.53 28.1673 371.333 28.1673H354.667C353.47 28.1673 352.5 27.1973 352.5 26.0007V20.0006Z" stroke="white"/>
<path opacity="0.4" d="M375 21.001V25.001C375.805 24.6622 376.328 23.8741 376.328 23.001C376.328 22.1278 375.805 21.3398 375 21.001Z" fill="white"/>
<path d="M354 20.434C354 19.8265 354.492 19.334 355.1 19.334H370.9C371.508 19.334 372 19.8265 372 20.434V25.5673C372 26.1748 371.508 26.6673 370.9 26.6673H355.1C354.492 26.6673 354 26.1748 354 25.5673V20.434Z" fill="white"/>
<path fill-rule="evenodd" clip-rule="evenodd" d="M339.33 19.6084C341.546 19.6085 343.678 20.4599 345.283 21.9867C345.404 22.1046 345.598 22.1031 345.717 21.9834L346.873 20.8167C346.933 20.756 346.967 20.6737 346.966 20.5882C346.966 20.5026 346.931 20.4207 346.87 20.3607C342.655 16.3212 336.005 16.3212 331.79 20.3607C331.729 20.4207 331.694 20.5025 331.694 20.5881C331.693 20.6737 331.727 20.7559 331.787 20.8167L332.943 21.9834C333.062 22.1033 333.256 22.1048 333.377 21.9867C334.983 20.4598 337.114 19.6084 339.33 19.6084ZM339.33 23.404C340.548 23.404 341.722 23.8565 342.624 24.6737C342.747 24.7897 342.939 24.7872 343.058 24.668L344.212 23.5014C344.273 23.4402 344.307 23.3572 344.306 23.2709C344.305 23.1846 344.27 23.1023 344.208 23.0424C341.46 20.486 337.204 20.486 334.455 23.0424C334.393 23.1023 334.358 23.1847 334.357 23.271C334.356 23.3573 334.39 23.4403 334.451 23.5014L335.605 24.668C335.724 24.7872 335.917 24.7897 336.039 24.6737C336.941 23.857 338.114 23.4046 339.33 23.404ZM341.643 25.9579C341.645 26.0444 341.611 26.1278 341.549 26.1884L339.552 28.204C339.494 28.2633 339.414 28.2966 339.33 28.2966C339.247 28.2966 339.167 28.2633 339.109 28.204L337.111 26.1884C337.049 26.1277 337.015 26.0443 337.017 25.9578C337.019 25.8713 337.057 25.7894 337.121 25.7314C338.396 24.6525 340.265 24.6525 341.54 25.7314C341.604 25.7894 341.642 25.8714 341.643 25.9579Z" fill="white"/>
<path fill-rule="evenodd" clip-rule="evenodd" d="M325.667 17.667H324.667C324.114 17.667 323.667 18.1147 323.667 18.667V27.3337C323.667 27.8859 324.114 28.3337 324.667 28.3337H325.667C326.219 28.3337 326.667 27.8859 326.667 27.3337V18.667C326.667 18.1147 326.219 17.667 325.667 17.667ZM320 20.0003H321C321.552 20.0003 322 20.448 322 21.0003V27.3337C322 27.8859 321.552 28.3337 321 28.3337H320C319.448 28.3337 319 27.8859 319 27.3337V21.0003C319 20.448 319.448 20.0003 320 20.0003ZM316.333 22.3337H315.333C314.781 22.3337 314.333 22.7814 314.333 23.3337V27.3337C314.333 27.8859 314.781 28.3337 315.333 28.3337H316.333C316.886 28.3337 317.333 27.8859 317.333 27.3337V23.3337C317.333 22.7814 316.886 22.3337 316.333 22.3337ZM311.667 24.3337H310.667C310.114 24.3337 309.667 24.7814 309.667 25.3337V27.3337C309.667 27.8859 310.114 28.3337 310.667 28.3337H311.667C312.219 28.3337 312.667 27.8859 312.667 27.3337V25.3337C312.667 24.7814 312.219 24.3337 311.667 24.3337Z" fill="white"/>
<path d="M38.5146 17.1675C36.2222 17.1675 34.5889 18.7349 34.5889 20.8809V20.8955C34.5889 22.9023 36.0098 24.3818 38.0386 24.3818C39.4888 24.3818 40.4116 23.6421 40.7998 22.8071H40.9463C40.9463 22.8877 40.939 22.9683 40.939 23.0488C40.8584 25.0703 40.1479 26.7109 38.4707 26.7109C37.5405 26.7109 36.8887 26.2275 36.6104 25.4878L36.5884 25.4146H34.728L34.7427 25.4951C35.0796 27.1138 36.5298 28.2637 38.4707 28.2637C41.1294 28.2637 42.7334 26.1543 42.7334 22.5947V22.5801C42.7334 18.7715 40.7705 17.1675 38.5146 17.1675ZM38.5073 22.9316C37.3062 22.9316 36.4346 22.0527 36.4346 20.8296V20.8149C36.4346 19.6357 37.3647 18.7056 38.5293 18.7056C39.7012 18.7056 40.6167 19.6504 40.6167 20.8589V20.8735C40.6167 22.0674 39.7012 22.9316 38.5073 22.9316ZM45.5586 21.1519C46.2324 21.1519 46.7231 20.6392 46.7231 19.9946C46.7231 19.3428 46.2324 18.8374 45.5586 18.8374C44.8921 18.8374 44.394 19.3428 44.394 19.9946C44.394 20.6392 44.8921 21.1519 45.5586 21.1519ZM45.5586 26.5864C46.2324 26.5864 46.7231 26.0811 46.7231 25.4292C46.7231 24.7773 46.2324 24.272 45.5586 24.272C44.8921 24.272 44.394 24.7773 44.394 25.4292C44.394 26.0811 44.8921 26.5864 45.5586 26.5864ZM53.5107 28H55.3198V25.9712H56.7407V24.4111H55.3198V17.4312H52.6465C51.2109 19.6138 49.7095 22.0454 48.3398 24.4258V25.9712H53.5107V28ZM50.0977 24.4551V24.3452C51.123 22.5508 52.3462 20.5952 53.4302 18.9399H53.54V24.4551H50.0977ZM60.6206 28H62.5103V17.4312H60.6279L57.8667 19.3721V21.1519L60.4961 19.2915H60.6206V28Z" fill="white"/>
</g>
<path d="M338.132 84.022V96H342.357C345.926 96 348.026 93.7754 348.026 89.9902C348.026 86.2134 345.918 84.022 342.357 84.022H338.132ZM339.991 85.624H342.182C344.714 85.624 346.125 87.1846 346.125 90.0068C346.125 92.8374 344.723 94.3896 342.182 94.3896H339.991V85.624ZM352.931 96.166C355.429 96.166 357.073 94.4478 357.073 91.6338C357.073 88.8281 355.421 87.1099 352.931 87.1099C350.441 87.1099 348.789 88.8281 348.789 91.6338C348.789 94.4478 350.432 96.166 352.931 96.166ZM352.931 94.6885C351.528 94.6885 350.615 93.5762 350.615 91.6338C350.615 89.6997 351.528 88.5874 352.931 88.5874C354.334 88.5874 355.247 89.6997 355.247 91.6338C355.247 93.5762 354.342 94.6885 352.931 94.6885ZM358.051 96H359.844V90.9116C359.844 89.5586 360.658 88.6621 361.919 88.6621C363.164 88.6621 363.779 89.3843 363.779 90.6958V96H365.58V90.3472C365.58 88.3467 364.476 87.1182 362.55 87.1182C361.205 87.1182 360.276 87.7324 359.803 88.7285H359.761V87.2676H358.051V96ZM370.559 88.5542C371.812 88.5542 372.659 89.4922 372.701 90.8286H368.334C368.426 89.5088 369.306 88.5542 370.559 88.5542ZM372.692 93.4351C372.452 94.1987 371.696 94.7134 370.675 94.7134C369.239 94.7134 368.326 93.709 368.326 92.1899V92.082H374.494V91.4678C374.494 88.8198 372.983 87.1099 370.559 87.1099C368.094 87.1099 366.517 88.936 366.517 91.6753C366.517 94.4312 368.069 96.166 370.634 96.166C372.634 96.166 374.145 95.0288 374.394 93.4351H372.692Z" fill="#2E4974"/>
</g>
<rect x="16" y="196.5" width="52" height="36" rx="4" fill="white"/>
<path d="M39.0878 221.19H35.6257L37.7911 208.589H41.253L39.0878 221.19Z" fill="#06204A"/>
<path d="M51.6378 208.898C50.9549 208.643 49.8719 208.361 48.5326 208.361C45.1138 208.361 42.7063 210.077 42.6915 212.53C42.6631 214.34 44.4152 215.345 45.7257 215.949C47.0651 216.565 47.5204 216.968 47.5204 217.517C47.5067 218.361 46.4381 218.751 45.4413 218.751C44.0591 218.751 43.3185 218.55 42.193 218.08L41.7371 217.879L41.2527 220.708C42.0647 221.056 43.5606 221.365 45.1138 221.378C48.7464 221.378 51.1113 219.689 51.1393 217.075C51.1532 215.64 50.228 214.541 48.2333 213.643C47.0225 213.067 46.2809 212.678 46.2809 212.088C46.2951 211.552 46.9081 211.002 48.275 211.002C49.4005 210.976 50.2274 211.23 50.8538 211.485L51.167 211.619L51.6378 208.898Z" fill="#06204A"/>
<path fill-rule="evenodd" clip-rule="evenodd" d="M57.8347 208.589H60.5126L63.3055 221.189H60.1C60.1 221.189 59.7863 219.742 59.6869 219.299H55.242C55.1135 219.634 54.5154 221.189 54.5154 221.189H50.8828L56.0252 209.634C56.3815 208.817 57.0089 208.589 57.8347 208.589ZM57.6213 213.2C57.6213 213.2 56.5242 216.002 56.2391 216.726H59.1167C58.9743 216.096 58.3187 213.079 58.3187 213.079L58.0768 211.994C57.9749 212.273 57.8276 212.658 57.7282 212.917C57.6608 213.093 57.6155 213.211 57.6213 213.2Z" fill="#06204A"/>
<path fill-rule="evenodd" clip-rule="evenodd" d="M20.6253 208.589H26.1954C26.9504 208.615 27.563 208.843 27.7624 209.648L28.9729 215.438C28.973 215.438 28.9731 215.438 28.9732 215.439L29.3437 217.181L32.7342 208.589H36.395L30.9533 221.176H27.2923L24.2066 210.227C23.1419 209.642 21.9269 209.17 20.5684 208.843L20.6253 208.589Z" fill="#06204A"/>
<path d="M77.8228 213.143L78.3647 212.168L76.5044 211.268L78.3647 210.352L77.8228 209.378L76.0796 210.506L76.1895 208.44H75.0981L75.2007 210.506L73.4502 209.385L72.9229 210.352L74.7612 211.26L72.9155 212.161L73.4429 213.15L75.208 212L75.0908 214.087H76.1821L76.0723 212L77.8228 213.143ZM84.9216 213.143L85.4636 212.168L83.6033 211.268L85.4636 210.352L84.9216 209.378L83.1785 210.506L83.2883 208.44H82.197L82.2996 210.506L80.5491 209.385L80.0217 210.352L81.8601 211.26L80.0144 212.161L80.5417 213.15L82.3069 212L82.1897 214.087H83.281L83.1711 212L84.9216 213.143ZM92.0205 213.143L92.5625 212.168L90.7021 211.268L92.5625 210.352L92.0205 209.378L90.2773 210.506L90.3872 208.44H89.2959L89.3984 210.506L87.6479 209.385L87.1206 210.352L88.959 211.26L87.1133 212.161L87.6406 213.15L89.4057 212L89.2886 214.087H90.3799L90.27 212L92.0205 213.143ZM99.1194 213.143L99.6613 212.168L97.801 211.268L99.6613 210.352L99.1194 209.378L97.3762 210.506L97.4861 208.44H96.3947L96.4973 210.506L94.7468 209.385L94.2195 210.352L96.0578 211.26L94.2121 212.161L94.7395 213.15L96.5046 212L96.3874 214.087H97.4787L97.3689 212L99.1194 213.143ZM104.673 219.698C107.324 219.698 108.892 217.603 108.892 214.065C108.892 212.828 108.672 211.788 108.24 210.945C107.559 209.524 106.299 208.726 104.731 208.726C102.498 208.726 100.872 210.264 100.872 212.381C100.872 214.388 102.373 215.875 104.38 215.875C105.742 215.875 106.855 215.186 107.28 214.146H107.288H107.295C107.302 214.146 107.31 214.146 107.31 214.146C107.31 216.812 106.343 218.335 104.695 218.335C103.721 218.335 102.915 217.757 102.666 216.893H101.018C101.333 218.57 102.79 219.698 104.673 219.698ZM104.731 214.534C103.45 214.534 102.505 213.597 102.505 212.33C102.505 211.099 103.494 210.125 104.753 210.125C106.013 210.125 106.995 211.106 106.995 212.359C106.995 213.604 106.028 214.534 104.731 214.534ZM113.874 219.698C116.152 219.698 117.748 218.196 117.748 216.028C117.748 213.978 116.291 212.491 114.262 212.491C113.229 212.491 112.365 212.894 111.904 213.56H111.867L112.16 210.315H117.133V208.931H110.842L110.285 214.908H111.786C112.196 214.212 112.987 213.794 113.903 213.794C115.221 213.794 116.144 214.747 116.144 216.072C116.144 217.398 115.221 218.328 113.888 218.328C112.709 218.328 111.808 217.61 111.691 216.563H110.124C110.219 218.409 111.764 219.698 113.874 219.698ZM122.818 219.705C125.06 219.705 126.678 218.167 126.678 216.05C126.678 214.043 125.184 212.557 123.17 212.557C121.852 212.557 120.731 213.245 120.269 214.271H120.24C120.248 211.612 121.214 210.103 122.877 210.103C123.844 210.103 124.635 210.667 124.891 211.531H126.532C126.209 209.847 124.759 208.726 122.892 208.726C120.248 208.726 118.665 210.821 118.665 214.358C118.665 215.596 118.885 216.636 119.317 217.479C120.006 218.907 121.258 219.705 122.818 219.705ZM122.804 218.321C121.544 218.321 120.57 217.325 120.57 216.072C120.57 214.82 121.529 213.897 122.818 213.897C124.115 213.897 125.045 214.82 125.045 216.102C125.045 217.339 124.049 218.321 122.804 218.321ZM131.375 219.698C134.026 219.698 135.593 217.603 135.593 214.065C135.593 212.828 135.374 211.788 134.942 210.945C134.26 209.524 133.001 208.726 131.433 208.726C129.199 208.726 127.573 210.264 127.573 212.381C127.573 214.388 129.075 215.875 131.082 215.875C132.444 215.875 133.557 215.186 133.982 214.146H133.989H133.997C134.004 214.146 134.011 214.146 134.011 214.146C134.011 216.812 133.045 218.335 131.397 218.335C130.423 218.335 129.617 217.757 129.368 216.893H127.72C128.035 218.57 129.492 219.698 131.375 219.698ZM131.433 214.534C130.152 214.534 129.207 213.597 129.207 212.33C129.207 211.099 130.195 210.125 131.455 210.125C132.715 210.125 133.696 211.106 133.696 212.359C133.696 213.604 132.73 214.534 131.433 214.534Z" fill="#262626"/>
<circle cx="349" cy="214.5" r="12" stroke="#C5C5C7" stroke-width="2"/>
<circle cx="349" cy="214.5" r="7.5" fill="#2E4974"/>
<line x1="16" y1="239.5" x2="374" y2="239.5" stroke="#E5E5EA"/>
<rect x="16" y="244" width="358" height="44" rx="5" fill="white"/>
<path d="M24.9482 272H26.5171L22.1011 260.022H20.6235L16.2075 272H17.7764L18.98 268.572H23.7446L24.9482 272ZM21.3374 261.84H21.3872L23.3047 267.302H19.4199L21.3374 261.84ZM30.3591 272.149C31.6042 272.149 32.592 271.535 33.1482 270.539H33.1731V272H34.551V260.022H33.1066V264.77H33.0734C32.5588 263.824 31.5627 263.218 30.3259 263.218C28.1511 263.218 26.6652 264.978 26.6652 267.684C26.6652 270.39 28.1594 272.149 30.3591 272.149ZM30.633 264.488C32.1189 264.488 33.1149 265.758 33.1149 267.684C33.1149 269.618 32.1189 270.879 30.633 270.879C29.1057 270.879 28.1428 269.643 28.1428 267.684C28.1428 265.733 29.1057 264.488 30.633 264.488ZM39.3642 272.149C40.6093 272.149 41.5971 271.535 42.1532 270.539H42.1781V272H43.5561V260.022H42.1117V264.77H42.0785C41.5639 263.824 40.5678 263.218 39.331 263.218C37.1562 263.218 35.6703 264.978 35.6703 267.684C35.6703 270.39 37.1645 272.149 39.3642 272.149ZM39.6381 264.488C41.1239 264.488 42.12 265.758 42.12 267.684C42.12 269.618 41.1239 270.879 39.6381 270.879C38.1108 270.879 37.1479 269.643 37.1479 267.684C37.1479 265.733 38.1108 264.488 39.6381 264.488ZM55.349 266.198C55.1663 264.646 53.8797 263.218 51.7215 263.218C49.3392 263.218 47.7537 264.961 47.7537 267.684C47.7537 270.464 49.3475 272.149 51.7381 272.149C53.6971 272.149 55.1414 270.938 55.3656 269.219H53.9461C53.6971 270.257 52.9251 270.879 51.7464 270.879C50.2523 270.879 49.223 269.692 49.223 267.684C49.223 265.725 50.2357 264.488 51.7298 264.488C52.9998 264.488 53.7303 265.26 53.9378 266.198H55.349ZM56.2857 272H57.73V266.621C57.73 265.401 58.4605 264.596 59.5811 264.596C59.9297 264.596 60.2369 264.637 60.3531 264.679V263.276C60.2369 263.259 60.021 263.218 59.772 263.218C58.7593 263.218 57.9624 263.824 57.6802 264.778H57.647V263.367H56.2857V272ZM64.1702 264.471C65.5315 264.471 66.4363 265.5 66.4695 266.945H61.7795C61.8708 265.509 62.8171 264.471 64.1702 264.471ZM66.4363 269.526C66.1956 270.34 65.3904 270.896 64.2947 270.896C62.7424 270.896 61.7712 269.809 61.7712 268.157V268.074H67.9636V267.526C67.9636 264.911 66.5276 263.218 64.1951 263.218C61.8127 263.218 60.2854 265.036 60.2854 267.717C60.2854 270.431 61.7878 272.149 64.2615 272.149C66.1458 272.149 67.6067 271.037 67.8557 269.526H66.4363ZM72.2871 272.149C73.5322 272.149 74.52 271.535 75.0761 270.539H75.101V272H76.479V260.022H75.0346V264.77H75.0014C74.4868 263.824 73.4907 263.218 72.2539 263.218C70.0791 263.218 68.5932 264.978 68.5932 267.684C68.5932 270.39 70.0874 272.149 72.2871 272.149ZM72.561 264.488C74.0468 264.488 75.0429 265.758 75.0429 267.684C75.0429 269.618 74.0468 270.879 72.561 270.879C71.0336 270.879 70.0708 269.643 70.0708 267.684C70.0708 265.733 71.0336 264.488 72.561 264.488ZM78.0964 272H79.5407V263.367H78.0964V272ZM78.8185 261.915C79.3166 261.915 79.7233 261.508 79.7233 261.018C79.7233 260.52 79.3166 260.122 78.8185 260.122C78.3288 260.122 77.922 260.52 77.922 261.018C77.922 261.508 78.3288 261.915 78.8185 261.915ZM81.5482 261.284V263.367H80.2616V264.554H81.5482V269.759C81.5482 271.419 82.1625 272.066 83.7479 272.066C84.0883 272.066 84.4867 272.042 84.661 272V270.788C84.5614 270.805 84.2294 270.83 84.0634 270.83C83.3246 270.83 82.9926 270.473 82.9926 269.684V264.554H84.6693V263.367H82.9926V261.284H81.5482ZM86.1041 274.548L90.3458 260.022H89.109L84.8673 274.548H86.1041ZM94.1463 272.149C95.3914 272.149 96.3792 271.535 96.9353 270.539H96.9602V272H98.3382V260.022H96.8938V264.77H96.8606C96.346 263.824 95.3499 263.218 94.1131 263.218C91.9383 263.218 90.4524 264.978 90.4524 267.684C90.4524 270.39 91.9466 272.149 94.1463 272.149ZM94.4202 264.488C95.906 264.488 96.9021 265.758 96.9021 267.684C96.9021 269.618 95.906 270.879 94.4202 270.879C92.8929 270.879 91.93 269.643 91.93 267.684C91.93 265.733 92.8929 264.488 94.4202 264.488ZM103.342 264.471C104.704 264.471 105.608 265.5 105.642 266.945H100.952C101.043 265.509 101.989 264.471 103.342 264.471ZM105.608 269.526C105.368 270.34 104.562 270.896 103.467 270.896C101.915 270.896 100.943 269.809 100.943 268.157V268.074H107.136V267.526C107.136 264.911 105.7 263.218 103.367 263.218C100.985 263.218 99.4575 265.036 99.4575 267.717C99.4575 270.431 100.96 272.149 103.434 272.149C105.318 272.149 106.779 271.037 107.028 269.526H105.608ZM112.48 272.149C114.688 272.149 116.149 270.398 116.149 267.684C116.149 264.978 114.68 263.218 112.505 263.218C111.285 263.218 110.28 263.824 109.741 264.812H109.708V260.022H108.263V272H109.641V270.539H109.675C110.231 271.535 111.218 272.149 112.48 272.149ZM112.198 264.488C113.725 264.488 114.672 265.725 114.672 267.684C114.672 269.659 113.725 270.879 112.198 270.879C110.737 270.879 109.699 269.609 109.699 267.684C109.699 265.766 110.737 264.488 112.198 264.488ZM117.285 272H118.729V263.367H117.285V272ZM118.007 261.915C118.505 261.915 118.912 261.508 118.912 261.018C118.912 260.52 118.505 260.122 118.007 260.122C117.517 260.122 117.111 260.52 117.111 261.018C117.111 261.508 117.517 261.915 118.007 261.915ZM120.737 261.284V263.367H119.45V264.554H120.737V269.759C120.737 271.419 121.351 272.066 122.937 272.066C123.277 272.066 123.675 272.042 123.85 272V270.788C123.75 270.805 123.418 270.83 123.252 270.83C122.513 270.83 122.181 270.473 122.181 269.684V264.554H123.858V263.367H122.181V261.284H120.737ZM135.244 266.198C135.062 264.646 133.775 263.218 131.617 263.218C129.234 263.218 127.649 264.961 127.649 267.684C127.649 270.464 129.243 272.149 131.633 272.149C133.592 272.149 135.037 270.938 135.261 269.219H133.841C133.592 270.257 132.82 270.879 131.642 270.879C130.147 270.879 129.118 269.692 129.118 267.684C129.118 265.725 130.131 264.488 131.625 264.488C132.895 264.488 133.626 265.26 133.833 266.198H135.244ZM139.028 270.921C137.99 270.921 137.302 270.381 137.302 269.56C137.302 268.746 137.966 268.231 139.128 268.157L141.435 268.016V268.721C141.435 269.966 140.389 270.921 139.028 270.921ZM138.704 272.149C139.866 272.149 140.962 271.502 141.477 270.514H141.51V272H142.88V266.032C142.88 264.313 141.601 263.218 139.576 263.218C137.534 263.218 136.256 264.363 136.156 265.857H137.551C137.733 265.011 138.43 264.488 139.543 264.488C140.738 264.488 141.435 265.119 141.435 266.173V266.895L138.962 267.036C136.969 267.152 135.832 268.082 135.832 269.56C135.832 271.112 136.986 272.149 138.704 272.149ZM144.306 272H145.75V266.621C145.75 265.401 146.481 264.596 147.602 264.596C147.95 264.596 148.257 264.637 148.373 264.679V263.276C148.257 263.259 148.041 263.218 147.792 263.218C146.78 263.218 145.983 263.824 145.701 264.778H145.667V263.367H144.306V272ZM152 272.149C153.245 272.149 154.233 271.535 154.789 270.539H154.814V272H156.192V260.022H154.747V264.77H154.714C154.199 263.824 153.203 263.218 151.966 263.218C149.792 263.218 148.306 264.978 148.306 267.684C148.306 270.39 149.8 272.149 152 272.149ZM152.274 264.488C153.759 264.488 154.756 265.758 154.756 267.684C154.756 269.618 153.759 270.879 152.274 270.879C150.746 270.879 149.783 269.643 149.783 267.684C149.783 265.733 150.746 264.488 152.274 264.488Z" fill="#ABABAB"/>
<path d="M349.3 271.399L354.7 265.999L349.3 260.599" stroke="#ABABAB" stroke-width="2" stroke-linecap="round" stroke-linejoin="round"/>
<path d="M19.208 138.044H28.1895C30.5137 138.044 32.4062 138.774 33.8672 140.235C35.3392 141.696 36.0752 143.589 36.0752 145.913C36.0752 148.248 35.3281 150.152 33.834 151.624C32.3509 153.085 30.4307 153.815 28.0732 153.815H22.9268V162H19.208V138.044ZM22.9268 141.182V150.694H27.1934C28.8092 150.694 30.0599 150.279 30.9453 149.449C31.8307 148.619 32.2734 147.446 32.2734 145.93C32.2734 144.424 31.8307 143.257 30.9453 142.427C30.071 141.597 28.8258 141.182 27.21 141.182H22.9268ZM43.9863 159.46C45.248 159.46 46.305 159.078 47.1572 158.314C48.0205 157.54 48.4521 156.588 48.4521 155.459V154.081L44.1523 154.347C43.0788 154.424 42.2487 154.69 41.6621 155.144C41.0866 155.586 40.7988 156.184 40.7988 156.937C40.7988 157.7 41.0866 158.314 41.6621 158.779C42.2487 159.233 43.0234 159.46 43.9863 159.46ZM42.9902 162.299C41.2747 162.299 39.8747 161.812 38.79 160.838C37.7164 159.864 37.1797 158.597 37.1797 157.036C37.1797 155.509 37.7441 154.297 38.873 153.4C40.0019 152.493 41.6012 151.984 43.6709 151.873L48.4521 151.591V150.246C48.4521 149.272 48.1422 148.514 47.5224 147.972C46.9026 147.418 46.0449 147.142 44.9492 147.142C43.931 147.142 43.1009 147.368 42.459 147.822C41.8281 148.276 41.4297 148.901 41.2636 149.698H37.8769C37.9765 148.082 38.6738 146.765 39.9687 145.747C41.2636 144.729 42.9681 144.22 45.082 144.22C47.1959 144.22 48.8782 144.74 50.1289 145.78C51.3906 146.821 52.0215 148.215 52.0215 149.964V162H48.5849V159.128H48.5019C48.0039 160.091 47.2457 160.86 46.2275 161.436C45.2204 162.011 44.1413 162.299 42.9902 162.299ZM57.6084 168.508C56.9332 168.508 56.4462 168.48 56.1474 168.425V165.52C56.3245 165.564 56.7119 165.586 57.3095 165.586C58.1507 165.586 58.8092 165.392 59.2851 165.005C59.761 164.629 60.1373 163.992 60.414 163.096C60.414 163.085 60.4694 162.902 60.58 162.548L60.7294 162.017L54.4209 144.535H58.3056L62.7382 158.746H62.788L67.2207 144.535H71.0058L64.4482 162.913C63.7067 165.027 62.8378 166.488 61.8418 167.296C60.8457 168.104 59.4345 168.508 57.6084 168.508ZM73.4882 162V144.535H76.9081V147.474H76.9911C77.3896 146.489 78.026 145.703 78.9003 145.116C79.7747 144.53 80.7929 144.236 81.955 144.236C83.1614 144.236 84.1852 144.535 85.0263 145.133C85.8785 145.73 86.4817 146.572 86.8359 147.656H86.9189C87.3727 146.594 88.081 145.758 89.0439 145.149C90.0178 144.541 91.1246 144.236 92.3642 144.236C94.0908 144.236 95.4742 144.762 96.5146 145.813C97.5549 146.865 98.0751 148.259 98.0751 149.997V162H94.4726V150.86C94.4726 149.731 94.1793 148.857 93.5927 148.237C93.0172 147.618 92.1982 147.308 91.1357 147.308C90.0732 147.308 89.2044 147.662 88.5292 148.37C87.8652 149.078 87.5331 149.986 87.5331 151.093V162H84.0136V150.595C84.0136 149.588 83.7148 148.791 83.1171 148.204C82.5195 147.606 81.7171 147.308 80.7099 147.308C79.6474 147.308 78.773 147.678 78.0868 148.42C77.4117 149.15 77.0742 150.08 77.0742 151.209V162H73.4882ZM112.262 148.37C111.476 147.529 110.463 147.108 109.224 147.108C107.984 147.108 106.955 147.535 106.136 148.387C105.317 149.228 104.863 150.318 104.774 151.657H113.507C113.462 150.307 113.047 149.211 112.262 148.37ZM113.49 156.87H116.893C116.639 158.475 115.82 159.786 114.436 160.805C113.053 161.823 111.365 162.332 109.373 162.332C106.816 162.332 104.802 161.53 103.33 159.925C101.869 158.309 101.139 156.118 101.139 153.351C101.139 150.606 101.869 148.398 103.33 146.727C104.802 145.055 106.767 144.22 109.224 144.22C111.636 144.22 113.551 145.011 114.968 146.594C116.384 148.165 117.093 150.279 117.093 152.936V154.164H104.758V154.38C104.758 155.907 105.184 157.13 106.036 158.049C106.888 158.967 108.028 159.427 109.456 159.427C110.463 159.427 111.326 159.194 112.046 158.729C112.765 158.265 113.247 157.645 113.49 156.87ZM120.256 162V144.535H123.676V147.457H123.759C124.246 146.439 124.954 145.647 125.884 145.083C126.813 144.519 127.937 144.236 129.254 144.236C131.169 144.236 132.657 144.812 133.72 145.963C134.782 147.103 135.313 148.68 135.313 150.694V162H131.711V151.392C131.711 150.063 131.395 149.056 130.765 148.37C130.145 147.673 129.221 147.324 127.992 147.324C126.73 147.324 125.723 147.734 124.971 148.553C124.218 149.372 123.842 150.462 123.842 151.823V162H120.256ZM140.203 140.401H143.806V144.535H147.126V147.374H143.806V157.003C143.806 157.756 143.977 158.309 144.32 158.663C144.663 159.017 145.2 159.194 145.931 159.194C146.462 159.194 146.855 159.167 147.109 159.111V161.95C146.667 162.061 146.002 162.116 145.117 162.116C143.357 162.116 142.096 161.757 141.332 161.037C140.579 160.307 140.203 159.095 140.203 157.401V147.374H137.663V144.535H140.203V140.401ZM157.735 162V144.535H161.155V147.474H161.238C161.637 146.489 162.273 145.703 163.147 145.116C164.022 144.53 165.04 144.236 166.202 144.236C167.408 144.236 168.432 144.535 169.273 145.133C170.125 145.73 170.729 146.572 171.083 147.656H171.166C171.62 146.594 172.328 145.758 173.291 145.149C174.265 144.541 175.372 144.236 176.611 144.236C178.338 144.236 179.721 144.762 180.762 145.813C181.802 146.865 182.322 148.259 182.322 149.997V162H178.72V150.86C178.72 149.731 178.426 148.857 177.84 148.237C177.264 147.618 176.445 147.308 175.383 147.308C174.32 147.308 173.451 147.662 172.776 148.37C172.112 149.078 171.78 149.986 171.78 151.093V162H168.261V150.595C168.261 149.588 167.962 148.791 167.364 148.204C166.766 147.606 165.964 147.308 164.957 147.308C163.894 147.308 163.02 147.678 162.334 148.42C161.659 149.15 161.321 150.08 161.321 151.209V162H157.735ZM196.509 148.37C195.723 147.529 194.71 147.108 193.47 147.108C192.231 147.108 191.202 147.535 190.383 148.387C189.564 149.228 189.11 150.318 189.021 151.657H197.754C197.709 150.307 197.294 149.211 196.509 148.37ZM197.737 156.87H201.14C200.886 158.475 200.067 159.786 198.683 160.805C197.3 161.823 195.612 162.332 193.62 162.332C191.063 162.332 189.049 161.53 187.577 159.925C186.116 158.309 185.386 156.118 185.386 153.351C185.386 150.606 186.116 148.398 187.577 146.727C189.049 145.055 191.013 144.22 193.47 144.22C195.883 144.22 197.798 145.011 199.215 146.594C200.631 148.165 201.34 150.279 201.34 152.936V154.164H189.005V154.38C189.005 155.907 189.431 157.13 190.283 158.049C191.135 158.967 192.275 159.427 193.703 159.427C194.71 159.427 195.573 159.194 196.293 158.729C197.012 158.265 197.494 157.645 197.737 156.87ZM205.549 140.401H209.151V144.535H212.471V147.374H209.151V157.003C209.151 157.756 209.323 158.309 209.666 158.663C210.009 159.017 210.546 159.194 211.276 159.194C211.807 159.194 212.2 159.167 212.455 159.111V161.95C212.012 162.061 211.348 162.116 210.463 162.116C208.703 162.116 207.441 161.757 206.678 161.037C205.925 160.307 205.549 159.095 205.549 157.401V147.374H203.009V144.535H205.549V140.401ZM215.933 162V138.044H219.486V147.457H219.569C220.056 146.428 220.77 145.636 221.711 145.083C222.651 144.519 223.78 144.236 225.097 144.236C227.001 144.236 228.495 144.823 229.58 145.996C230.676 147.169 231.223 148.752 231.223 150.744V162H227.621V151.441C227.621 150.135 227.294 149.123 226.641 148.403C225.999 147.684 225.053 147.324 223.802 147.324C222.485 147.324 221.44 147.745 220.665 148.586C219.901 149.416 219.519 150.523 219.519 151.906V162H215.933ZM248.597 159.908C247.092 161.524 245.083 162.332 242.571 162.332C240.059 162.332 238.05 161.524 236.545 159.908C235.039 158.281 234.287 156.068 234.287 153.268C234.287 150.479 235.039 148.276 236.545 146.66C238.05 145.033 240.059 144.22 242.571 144.22C245.083 144.22 247.092 145.033 248.597 146.66C250.103 148.276 250.855 150.479 250.855 153.268C250.855 156.068 250.103 158.281 248.597 159.908ZM242.571 159.377C243.999 159.377 245.128 158.84 245.958 157.767C246.788 156.693 247.203 155.193 247.203 153.268C247.203 151.353 246.782 149.859 245.941 148.785C245.111 147.712 243.988 147.175 242.571 147.175C241.154 147.175 240.025 147.712 239.184 148.785C238.354 149.859 237.939 151.353 237.939 153.268C237.939 155.193 238.354 156.693 239.184 157.767C240.025 158.84 241.154 159.377 242.571 159.377ZM260.559 162.299C258.346 162.299 256.569 161.48 255.23 159.842C253.891 158.204 253.221 156.012 253.221 153.268C253.221 150.523 253.885 148.337 255.214 146.71C256.553 145.072 258.324 144.253 260.526 144.253C261.755 144.253 262.85 144.541 263.813 145.116C264.776 145.681 265.507 146.455 266.005 147.44H266.071V138.044H269.674V162H266.187V159.028H266.121C265.601 160.047 264.854 160.849 263.88 161.436C262.917 162.011 261.81 162.299 260.559 162.299ZM261.506 147.274C260.089 147.274 258.966 147.817 258.135 148.901C257.305 149.975 256.89 151.43 256.89 153.268C256.89 155.116 257.305 156.577 258.135 157.65C258.966 158.724 260.089 159.261 261.506 159.261C262.889 159.261 264.001 158.718 264.842 157.634C265.684 156.538 266.104 155.083 266.104 153.268C266.104 151.464 265.684 150.014 264.842 148.918C264.001 147.822 262.889 147.274 261.506 147.274ZM273.418 149.482C273.418 147.922 274.049 146.655 275.31 145.681C276.572 144.707 278.221 144.22 280.257 144.22C282.194 144.22 283.783 144.712 285.022 145.697C286.273 146.671 286.926 147.938 286.981 149.499H283.611C283.522 148.702 283.174 148.077 282.565 147.623C281.956 147.169 281.154 146.942 280.158 146.942C279.184 146.942 278.398 147.158 277.8 147.59C277.214 148.021 276.921 148.58 276.921 149.267C276.921 150.329 277.812 151.082 279.593 151.524L282.532 152.205C284.292 152.626 285.537 153.201 286.267 153.932C287.009 154.651 287.38 155.658 287.38 156.953C287.38 158.547 286.704 159.842 285.354 160.838C284.015 161.834 282.272 162.332 280.125 162.332C278.077 162.332 276.406 161.845 275.111 160.871C273.827 159.897 273.113 158.602 272.969 156.986H276.522C276.666 157.827 277.059 158.475 277.701 158.929C278.343 159.371 279.206 159.593 280.291 159.593C281.364 159.593 282.211 159.388 282.831 158.979C283.462 158.558 283.777 157.993 283.777 157.285C283.777 156.721 283.589 156.272 283.213 155.94C282.836 155.608 282.194 155.326 281.287 155.094L278.166 154.33C275 153.566 273.418 151.951 273.418 149.482Z" fill="#262626"/>
</g>
<defs>
<filter id="filter0_b_4939_56279" x="-19" y="-20" width="430" height="152" filterUnits="userSpaceOnUse" color-interpolation-filters="sRGB">
<feFlood flood-opacity="0" result="BackgroundImageFix"/>
<feGaussianBlur in="BackgroundImageFix" stdDeviation="10"/>
<feComposite in2="SourceAlpha" operator="in" result="effect1_backgroundBlur_4939_56279"/>
<feBlend mode="normal" in="SourceGraphic" in2="effect1_backgroundBlur_4939_56279" result="shape"/>
</filter>
<clipPath id="clip0_4939_56279">
<rect width="390" height="844" fill="white"/>
</clipPath>
<clipPath id="clip1_4939_56279">
<rect width="390" height="44" fill="white" transform="translate(1)"/>
</clipPath>
</defs>
</svg>
