<svg width="375" height="812" viewBox="0 0 375 812" fill="none" xmlns="http://www.w3.org/2000/svg">
<rect width="375" height="812" fill="white"/>
<rect width="375" height="44" fill="#A7192F"/>
<path d="M319.484 19.1123C318.306 20.9644 317.129 22.8929 316.111 24.8023V26.1898H320.311V27.8H321.928V26.1898H322.991V24.8023H321.928V19.1123H319.484ZM317.67 24.8023V24.7832C318.446 23.3066 319.363 21.7918 320.254 20.4107H320.311V24.8023H317.67ZM331.042 21.8937C330.972 20.277 329.737 18.9468 327.592 18.9468C325.237 18.9468 323.901 20.4871 323.901 22.8229V23.9813C323.901 26.3489 325.078 27.9655 327.605 27.9655C329.833 27.9655 331.055 26.5271 331.055 24.8532V23.122H327.631V24.4013H329.419V24.9551C329.419 25.8397 328.738 26.5271 327.637 26.5271C326.237 26.5271 325.632 25.5088 325.632 23.9749V22.8356C325.632 21.2827 326.339 20.3916 327.586 20.3916C328.617 20.3916 329.26 20.9963 329.368 21.8937H331.042Z" fill="white"/>
<rect x="293.661" y="23.5222" width="2.75179" height="4.01485" fill="white"/>
<rect x="298.247" y="21.5149" width="2.75179" height="6.02228" fill="white"/>
<rect x="302.834" y="19.5078" width="2.75179" height="8.0297" fill="white"/>
<rect opacity="0.3" x="307.42" y="17.5" width="2.75179" height="10.0371" fill="white"/>
<rect x="338.102" y="17.9345" width="20.8556" height="9.16815" rx="2.17246" stroke="white" stroke-width="0.868985"/>
<rect x="339.406" y="19.0442" width="10.4278" height="6.94879" rx="0.868985" fill="#FDD015"/>
<rect x="360.262" y="20.5879" width="1.73797" height="3.86044" rx="0.868985" fill="white"/>
<path d="M32.5736 21.6087C32.5736 19.4566 33.291 18.3472 34.4003 18.3472C35.5171 18.3472 36.227 19.464 36.227 21.6087V22.289C36.227 24.4411 35.5171 25.5653 34.4003 25.5653C33.291 25.5653 32.5736 24.4485 32.5736 22.289V21.6087ZM30.5842 22.3038C30.5842 25.2325 31.9228 27.1923 34.3856 27.1923C36.9296 27.1923 38.2238 25.1141 38.2238 22.3038V21.6013C38.2238 18.6504 36.8926 16.7128 34.4225 16.7128C31.9672 16.7128 30.5842 18.6652 30.5842 21.6013V22.3038ZM43.3194 25.7502C42.2248 25.7502 41.3965 25.0846 41.3965 24.0936C41.3965 23.1026 42.2248 22.4222 43.3194 22.4222C44.4065 22.4222 45.2422 23.1026 45.2422 24.0936C45.2422 25.0846 44.4065 25.7502 43.3194 25.7502ZM43.3194 21.0614C42.4023 21.0614 41.7219 20.4623 41.7219 19.6045C41.7219 18.7466 42.4023 18.1697 43.3194 18.1697C44.2364 18.1697 44.9168 18.7466 44.9168 19.6045C44.9168 20.4623 44.2364 21.0614 43.3194 21.0614ZM43.2972 27.1923C45.6637 27.1923 47.2242 25.972 47.2242 24.2193C47.2242 22.6292 46.0261 21.8897 45.1091 21.7048V21.6456C45.9448 21.3868 46.8248 20.699 46.8248 19.3826C46.8248 17.8443 45.4271 16.7128 43.3194 16.7128C41.2116 16.7128 39.8139 17.8443 39.8139 19.3826C39.8139 20.6842 40.6644 21.3794 41.5222 21.6456V21.7048C40.6126 21.8897 39.4071 22.6218 39.4071 24.2267C39.4071 25.9794 40.938 27.1923 43.2972 27.1923ZM48.5998 24.6408C48.5998 25.2694 49.1175 25.7871 49.7461 25.7871C50.3747 25.7871 50.8924 25.2694 50.8924 24.6408C50.8924 24.0122 50.3747 23.4945 49.7461 23.4945C49.1175 23.4945 48.5998 24.0122 48.5998 24.6408ZM48.5998 19.5305C48.5998 20.1591 49.1175 20.6768 49.7461 20.6768C50.3747 20.6768 50.8924 20.1591 50.8924 19.5305C50.8924 18.8945 50.3747 18.3842 49.7461 18.3842C49.1175 18.3842 48.5998 18.8945 48.5998 19.5305ZM54.9969 22.5701H56.084C57.2599 22.5701 57.9255 23.2061 57.9329 24.0788C57.9403 24.9662 57.2599 25.6318 56.0988 25.6318C54.9969 25.6318 54.3535 25.0032 54.2721 24.1897H52.4307C52.4676 25.8093 53.6213 27.1997 56.0471 27.1997C58.1918 27.1997 59.9519 26.0016 59.9297 24.1749C59.9075 22.5553 58.7095 21.8083 57.7776 21.7418V21.6678C58.5468 21.5569 59.6265 20.7656 59.6043 19.3382C59.5747 17.8074 58.1326 16.7128 56.1284 16.7128C53.8876 16.7128 52.6673 18.0366 52.6229 19.6488H54.4866C54.531 18.9906 55.0265 18.2585 56.0619 18.2585C57.0085 18.2585 57.6371 18.8279 57.6371 19.6045C57.6445 20.4402 56.9937 21.0318 56.0323 21.0318H54.9969V22.5701ZM64.9365 16.9051C63.5683 19.0572 62.2002 21.298 61.0169 23.5167V25.1289H65.8979V27H67.7764V25.1289H69.0114V23.5167H67.7764V16.9051H64.9365ZM62.8288 23.5167V23.4945C63.731 21.7788 64.796 20.0186 65.8314 18.4138H65.8979V23.5167H62.8288Z" fill="white"/>
<rect width="375" height="60" transform="translate(0 44)" fill="#A7192F"/>
<path d="M26.5 79.5L19 72M19 72L26.5 64.5M19 72H37" stroke="white" stroke-width="1.5" stroke-linecap="round" stroke-linejoin="round"/>
<path d="M53.3047 66.5078H55.625C56.8802 66.5078 57.7839 66.625 58.3359 66.8594C58.8932 67.0885 59.3307 67.4635 59.6484 67.9844C59.9714 68.5 60.1328 69.1198 60.1328 69.8438C60.1328 70.6458 59.9219 71.3125 59.5 71.8438C59.0833 72.375 58.5156 72.7448 57.7969 72.9531C57.375 73.0729 56.6068 73.1328 55.4922 73.1328V78H53.3047V66.5078ZM55.4922 71H56.1875C56.7344 71 57.1146 70.9609 57.3281 70.8828C57.5417 70.8047 57.7083 70.6771 57.8281 70.5C57.9531 70.3177 58.0156 70.099 58.0156 69.8438C58.0156 69.401 57.8438 69.0781 57.5 68.875C57.25 68.724 56.7865 68.6484 56.1094 68.6484H55.4922V71ZM62.0547 66.2188H64.1719V70.3594C64.5885 70 65.0078 69.7318 65.4297 69.5547C65.8516 69.3724 66.2786 69.2812 66.7109 69.2812C67.5547 69.2812 68.2656 69.5729 68.8438 70.1562C69.3385 70.6615 69.5859 71.4036 69.5859 72.3828V78H67.4844V74.2734C67.4844 73.2891 67.4375 72.6224 67.3438 72.2734C67.25 71.9245 67.0885 71.6641 66.8594 71.4922C66.6354 71.3203 66.3568 71.2344 66.0234 71.2344C65.5911 71.2344 65.2188 71.3776 64.9062 71.6641C64.599 71.9505 64.3854 72.3411 64.2656 72.8359C64.2031 73.0911 64.1719 73.6745 64.1719 74.5859V78H62.0547V66.2188ZM75.6484 69.2812C76.4505 69.2812 77.2031 69.4818 77.9062 69.8828C78.6146 70.2839 79.1667 70.8281 79.5625 71.5156C79.9583 72.2031 80.1562 72.9453 80.1562 73.7422C80.1562 74.5443 79.9557 75.2943 79.5547 75.9922C79.1589 76.6901 78.6172 77.237 77.9297 77.6328C77.2422 78.0234 76.4844 78.2188 75.6562 78.2188C74.4375 78.2188 73.3958 77.7865 72.5312 76.9219C71.6719 76.0521 71.2422 74.9974 71.2422 73.7578C71.2422 72.4297 71.7292 71.3229 72.7031 70.4375C73.5573 69.6667 74.5391 69.2812 75.6484 69.2812ZM75.6797 71.2891C75.0182 71.2891 74.4661 71.5208 74.0234 71.9844C73.5859 72.4427 73.3672 73.0312 73.3672 73.75C73.3672 74.4896 73.5833 75.0885 74.0156 75.5469C74.4531 76.0052 75.0052 76.2344 75.6719 76.2344C76.3385 76.2344 76.8932 76.0026 77.3359 75.5391C77.7786 75.0755 78 74.4792 78 73.75C78 73.0208 77.7812 72.4297 77.3438 71.9766C76.9115 71.5182 76.3568 71.2891 75.6797 71.2891ZM81.9062 69.5H84.0312V70.3672C84.5156 69.9609 84.9531 69.6797 85.3438 69.5234C85.7396 69.362 86.1432 69.2812 86.5547 69.2812C87.3984 69.2812 88.1146 69.5755 88.7031 70.1641C89.1979 70.6641 89.4453 71.4036 89.4453 72.3828V78H87.3359V74.2734C87.3359 73.2578 87.2891 72.5833 87.1953 72.25C87.1068 71.9167 86.9479 71.6641 86.7188 71.4922C86.4948 71.3151 86.2161 71.2266 85.8828 71.2266C85.4505 71.2266 85.0781 71.3724 84.7656 71.6641C84.4583 71.9505 84.2448 72.349 84.125 72.8594C84.0625 73.125 84.0312 73.7005 84.0312 74.5859V78H81.9062V69.5ZM100.031 74.3672H93.1797C93.2786 74.9714 93.5417 75.4531 93.9688 75.8125C94.401 76.1667 94.9505 76.3438 95.6172 76.3438C96.4141 76.3438 97.099 76.0651 97.6719 75.5078L99.4688 76.3516C99.0208 76.987 98.4844 77.4583 97.8594 77.7656C97.2344 78.0677 96.4922 78.2188 95.6328 78.2188C94.2995 78.2188 93.2135 77.7995 92.375 76.9609C91.5365 76.1172 91.1172 75.0625 91.1172 73.7969C91.1172 72.5 91.5339 71.4245 92.3672 70.5703C93.2057 69.7109 94.2552 69.2812 95.5156 69.2812C96.8542 69.2812 97.9427 69.7109 98.7812 70.5703C99.6198 71.4245 100.039 72.5547 100.039 73.9609L100.031 74.3672ZM97.8906 72.6875C97.75 72.2135 97.4714 71.8281 97.0547 71.5312C96.6432 71.2344 96.1641 71.0859 95.6172 71.0859C95.0234 71.0859 94.5026 71.2526 94.0547 71.5859C93.7734 71.7943 93.513 72.1615 93.2734 72.6875H97.8906ZM106.492 66.5078H108.586L113.516 74.0703V66.5078H115.703V78H113.602L108.68 70.4609V78H106.492V66.5078ZM118.086 69.5H120.242V73.5938C120.242 74.3906 120.297 74.9453 120.406 75.2578C120.516 75.5651 120.69 75.8047 120.93 75.9766C121.174 76.1484 121.474 76.2344 121.828 76.2344C122.182 76.2344 122.482 76.151 122.727 75.9844C122.977 75.8125 123.161 75.5625 123.281 75.2344C123.37 74.9896 123.414 74.4661 123.414 73.6641V69.5H125.555V73.1016C125.555 74.5859 125.438 75.6016 125.203 76.1484C124.917 76.8151 124.495 77.3281 123.938 77.6875C123.38 78.0417 122.672 78.2188 121.812 78.2188C120.88 78.2188 120.125 78.0104 119.547 77.5938C118.974 77.1771 118.57 76.5964 118.336 75.8516C118.169 75.3359 118.086 74.3984 118.086 73.0391V69.5ZM127.688 69.5H129.828V70.4766C130.193 70.0755 130.596 69.776 131.039 69.5781C131.487 69.3802 131.974 69.2812 132.5 69.2812C133.031 69.2812 133.51 69.4115 133.938 69.6719C134.365 69.9323 134.708 70.3125 134.969 70.8125C135.307 70.3125 135.721 69.9323 136.211 69.6719C136.706 69.4115 137.245 69.2812 137.828 69.2812C138.432 69.2812 138.964 69.4219 139.422 69.7031C139.88 69.9844 140.208 70.3516 140.406 70.8047C140.609 71.2578 140.711 71.9948 140.711 73.0156V78H138.562V73.6875C138.562 72.724 138.443 72.0729 138.203 71.7344C137.964 71.3906 137.604 71.2188 137.125 71.2188C136.76 71.2188 136.432 71.3229 136.141 71.5312C135.854 71.7396 135.641 72.0286 135.5 72.3984C135.359 72.763 135.289 73.3516 135.289 74.1641V78H133.141V73.8828C133.141 73.1224 133.083 72.5729 132.969 72.2344C132.859 71.8906 132.693 71.6354 132.469 71.4688C132.245 71.3021 131.974 71.2188 131.656 71.2188C131.302 71.2188 130.979 71.3255 130.688 71.5391C130.401 71.7474 130.185 72.0417 130.039 72.4219C129.898 72.8021 129.828 73.401 129.828 74.2188V78H127.688V69.5ZM144.867 66.2188V70.4375C145.253 70.0521 145.669 69.763 146.117 69.5703C146.565 69.3776 147.044 69.2812 147.555 69.2812C148.664 69.2812 149.607 69.7005 150.383 70.5391C151.159 71.3776 151.547 72.4531 151.547 73.7656C151.547 75.0312 151.146 76.0911 150.344 76.9453C149.542 77.7943 148.591 78.2188 147.492 78.2188C147.003 78.2188 146.547 78.1328 146.125 77.9609C145.703 77.7839 145.284 77.4974 144.867 77.1016V78H142.75V66.2188H144.867ZM147.109 71.25C146.438 71.25 145.88 71.4792 145.438 71.9375C144.995 72.3958 144.773 72.9948 144.773 73.7344C144.773 74.4896 144.995 75.1016 145.438 75.5703C145.88 76.0339 146.438 76.2656 147.109 76.2656C147.76 76.2656 148.307 76.0286 148.75 75.5547C149.198 75.0807 149.422 74.4766 149.422 73.7422C149.422 73.013 149.203 72.4167 148.766 71.9531C148.328 71.4844 147.776 71.25 147.109 71.25ZM161.828 74.3672H154.977C155.076 74.9714 155.339 75.4531 155.766 75.8125C156.198 76.1667 156.747 76.3438 157.414 76.3438C158.211 76.3438 158.896 76.0651 159.469 75.5078L161.266 76.3516C160.818 76.987 160.281 77.4583 159.656 77.7656C159.031 78.0677 158.289 78.2188 157.43 78.2188C156.096 78.2188 155.01 77.7995 154.172 76.9609C153.333 76.1172 152.914 75.0625 152.914 73.7969C152.914 72.5 153.331 71.4245 154.164 70.5703C155.003 69.7109 156.052 69.2812 157.312 69.2812C158.651 69.2812 159.74 69.7109 160.578 70.5703C161.417 71.4245 161.836 72.5547 161.836 73.9609L161.828 74.3672ZM159.688 72.6875C159.547 72.2135 159.268 71.8281 158.852 71.5312C158.44 71.2344 157.961 71.0859 157.414 71.0859C156.82 71.0859 156.299 71.2526 155.852 71.5859C155.57 71.7943 155.31 72.1615 155.07 72.6875H159.688ZM163.062 69.5H164.891V70.5703C165.089 70.1484 165.352 69.8281 165.68 69.6094C166.008 69.3906 166.367 69.2812 166.758 69.2812C167.034 69.2812 167.323 69.3542 167.625 69.5L166.961 71.3359C166.711 71.2109 166.505 71.1484 166.344 71.1484C166.016 71.1484 165.737 71.3516 165.508 71.7578C165.284 72.1641 165.172 72.9609 165.172 74.1484L165.18 74.5625V78H163.062V69.5ZM172.531 66.5078H174.781L177.672 74.6719L180.602 66.5078H182.852L178.711 78H176.602L172.531 66.5078ZM192.891 74.3672H186.039C186.138 74.9714 186.401 75.4531 186.828 75.8125C187.26 76.1667 187.81 76.3438 188.477 76.3438C189.273 76.3438 189.958 76.0651 190.531 75.5078L192.328 76.3516C191.88 76.987 191.344 77.4583 190.719 77.7656C190.094 78.0677 189.352 78.2188 188.492 78.2188C187.159 78.2188 186.073 77.7995 185.234 76.9609C184.396 76.1172 183.977 75.0625 183.977 73.7969C183.977 72.5 184.393 71.4245 185.227 70.5703C186.065 69.7109 187.115 69.2812 188.375 69.2812C189.714 69.2812 190.802 69.7109 191.641 70.5703C192.479 71.4245 192.898 72.5547 192.898 73.9609L192.891 74.3672ZM190.75 72.6875C190.609 72.2135 190.331 71.8281 189.914 71.5312C189.503 71.2344 189.023 71.0859 188.477 71.0859C187.883 71.0859 187.362 71.2526 186.914 71.5859C186.633 71.7943 186.372 72.1615 186.133 72.6875H190.75ZM194.125 69.5H195.953V70.5703C196.151 70.1484 196.414 69.8281 196.742 69.6094C197.07 69.3906 197.43 69.2812 197.82 69.2812C198.096 69.2812 198.385 69.3542 198.688 69.5L198.023 71.3359C197.773 71.2109 197.568 71.1484 197.406 71.1484C197.078 71.1484 196.799 71.3516 196.57 71.7578C196.346 72.1641 196.234 72.9609 196.234 74.1484L196.242 74.5625V78H194.125V69.5ZM200.586 66C200.961 66 201.281 66.1354 201.547 66.4062C201.818 66.6771 201.953 67.0052 201.953 67.3906C201.953 67.7708 201.82 68.0964 201.555 68.3672C201.289 68.6328 200.971 68.7656 200.602 68.7656C200.221 68.7656 199.896 68.6302 199.625 68.3594C199.359 68.0833 199.227 67.75 199.227 67.3594C199.227 66.9844 199.359 66.6641 199.625 66.3984C199.891 66.1328 200.211 66 200.586 66ZM199.516 69.5H201.656V78H199.516V69.5ZM202.578 69.5H203.336C203.341 68.3854 203.359 67.7266 203.391 67.5234C203.448 67.0547 203.643 66.6849 203.977 66.4141C204.315 66.138 204.792 66 205.406 66C205.849 66 206.349 66.1016 206.906 66.3047V67.9297C206.599 67.8411 206.346 67.7969 206.148 67.7969C205.898 67.7969 205.716 67.849 205.602 67.9531C205.518 68.0312 205.477 68.1927 205.477 68.4375L205.469 69.5H206.82V71.3125H205.469V78H203.336V71.3125H202.578V69.5ZM208.914 66C209.289 66 209.609 66.1354 209.875 66.4062C210.146 66.6771 210.281 67.0052 210.281 67.3906C210.281 67.7708 210.148 68.0964 209.883 68.3672C209.617 68.6328 209.299 68.7656 208.93 68.7656C208.549 68.7656 208.224 68.6302 207.953 68.3594C207.688 68.0833 207.555 67.75 207.555 67.3594C207.555 66.9844 207.688 66.6641 207.953 66.3984C208.219 66.1328 208.539 66 208.914 66ZM207.844 69.5H209.984V78H207.844V69.5ZM220.242 71.2188L218.469 72.1953C218.135 71.8464 217.805 71.6042 217.477 71.4688C217.154 71.3333 216.773 71.2656 216.336 71.2656C215.539 71.2656 214.893 71.5052 214.398 71.9844C213.909 72.4583 213.664 73.0677 213.664 73.8125C213.664 74.5365 213.901 75.1276 214.375 75.5859C214.849 76.0443 215.471 76.2734 216.242 76.2734C217.195 76.2734 217.938 75.9479 218.469 75.2969L220.148 76.4453C219.237 77.6276 217.951 78.2188 216.289 78.2188C214.794 78.2188 213.622 77.776 212.773 76.8906C211.93 76.0052 211.508 74.9688 211.508 73.7812C211.508 72.9583 211.714 72.2005 212.125 71.5078C212.536 70.8151 213.109 70.2708 213.844 69.875C214.583 69.4792 215.409 69.2812 216.32 69.2812C217.164 69.2812 217.922 69.4505 218.594 69.7891C219.266 70.1224 219.815 70.599 220.242 71.2188ZM228.453 69.5H230.578V78H228.453V77.1016C228.036 77.4974 227.617 77.7839 227.195 77.9609C226.779 78.1328 226.326 78.2188 225.836 78.2188C224.737 78.2188 223.786 77.7943 222.984 76.9453C222.182 76.0911 221.781 75.0312 221.781 73.7656C221.781 72.4531 222.169 71.3776 222.945 70.5391C223.721 69.7005 224.664 69.2812 225.773 69.2812C226.284 69.2812 226.763 69.3776 227.211 69.5703C227.659 69.763 228.073 70.0521 228.453 70.4375V69.5ZM226.211 71.25C225.549 71.25 225 71.4844 224.562 71.9531C224.125 72.4167 223.906 73.013 223.906 73.7422C223.906 74.4766 224.128 75.0807 224.57 75.5547C225.018 76.0286 225.568 76.2656 226.219 76.2656C226.891 76.2656 227.448 76.0339 227.891 75.5703C228.333 75.1016 228.555 74.4896 228.555 73.7344C228.555 72.9948 228.333 72.3958 227.891 71.9375C227.448 71.4792 226.888 71.25 226.211 71.25ZM232.992 66.3672H235.117V69.5H236.383V71.3359H235.117V78H232.992V71.3359H231.898V69.5H232.992V66.3672ZM238.367 66C238.742 66 239.062 66.1354 239.328 66.4062C239.599 66.6771 239.734 67.0052 239.734 67.3906C239.734 67.7708 239.602 68.0964 239.336 68.3672C239.07 68.6328 238.753 68.7656 238.383 68.7656C238.003 68.7656 237.677 68.6302 237.406 68.3594C237.141 68.0833 237.008 67.75 237.008 67.3594C237.008 66.9844 237.141 66.6641 237.406 66.3984C237.672 66.1328 237.992 66 238.367 66ZM237.297 69.5H239.438V78H237.297V69.5ZM245.367 69.2812C246.169 69.2812 246.922 69.4818 247.625 69.8828C248.333 70.2839 248.885 70.8281 249.281 71.5156C249.677 72.2031 249.875 72.9453 249.875 73.7422C249.875 74.5443 249.674 75.2943 249.273 75.9922C248.878 76.6901 248.336 77.237 247.648 77.6328C246.961 78.0234 246.203 78.2188 245.375 78.2188C244.156 78.2188 243.115 77.7865 242.25 76.9219C241.391 76.0521 240.961 74.9974 240.961 73.7578C240.961 72.4297 241.448 71.3229 242.422 70.4375C243.276 69.6667 244.258 69.2812 245.367 69.2812ZM245.398 71.2891C244.737 71.2891 244.185 71.5208 243.742 71.9844C243.305 72.4427 243.086 73.0312 243.086 73.75C243.086 74.4896 243.302 75.0885 243.734 75.5469C244.172 76.0052 244.724 76.2344 245.391 76.2344C246.057 76.2344 246.612 76.0026 247.055 75.5391C247.497 75.0755 247.719 74.4792 247.719 73.75C247.719 73.0208 247.5 72.4297 247.062 71.9766C246.63 71.5182 246.076 71.2891 245.398 71.2891ZM251.625 69.5H253.75V70.3672C254.234 69.9609 254.672 69.6797 255.062 69.5234C255.458 69.362 255.862 69.2812 256.273 69.2812C257.117 69.2812 257.833 69.5755 258.422 70.1641C258.917 70.6641 259.164 71.4036 259.164 72.3828V78H257.055V74.2734C257.055 73.2578 257.008 72.5833 256.914 72.25C256.826 71.9167 256.667 71.6641 256.438 71.4922C256.214 71.3151 255.935 71.2266 255.602 71.2266C255.169 71.2266 254.797 71.3724 254.484 71.6641C254.177 71.9505 253.964 72.349 253.844 72.8594C253.781 73.125 253.75 73.7005 253.75 74.5859V78H251.625V69.5Z" fill="white"/>
<path d="M132.742 258.219C134.367 258.219 135.763 258.807 136.93 259.984C138.102 261.161 138.688 262.596 138.688 264.289C138.688 265.966 138.109 267.385 136.953 268.547C135.802 269.708 134.404 270.289 132.758 270.289C131.034 270.289 129.602 269.693 128.461 268.5C127.32 267.307 126.75 265.891 126.75 264.25C126.75 263.151 127.016 262.141 127.547 261.219C128.078 260.297 128.807 259.568 129.734 259.031C130.667 258.49 131.669 258.219 132.742 258.219ZM132.719 260.359C131.656 260.359 130.763 260.729 130.039 261.469C129.315 262.208 128.953 263.148 128.953 264.289C128.953 265.56 129.409 266.565 130.32 267.305C131.029 267.883 131.841 268.172 132.758 268.172C133.794 268.172 134.677 267.797 135.406 267.047C136.135 266.297 136.5 265.372 136.5 264.273C136.5 263.18 136.133 262.255 135.398 261.5C134.664 260.74 133.771 260.359 132.719 260.359ZM139.617 258.508H145.969V260.664H143.875V270H141.656V260.664H139.617V258.508ZM147.461 258.508H149.781C151.036 258.508 151.94 258.625 152.492 258.859C153.049 259.089 153.487 259.464 153.805 259.984C154.128 260.5 154.289 261.12 154.289 261.844C154.289 262.646 154.078 263.312 153.656 263.844C153.24 264.375 152.672 264.745 151.953 264.953C151.531 265.073 150.763 265.133 149.648 265.133V270H147.461V258.508ZM149.648 263H150.344C150.891 263 151.271 262.961 151.484 262.883C151.698 262.805 151.865 262.677 151.984 262.5C152.109 262.318 152.172 262.099 152.172 261.844C152.172 261.401 152 261.078 151.656 260.875C151.406 260.724 150.943 260.648 150.266 260.648H149.648V263ZM160.047 258.508H162.297L165.188 266.672L168.117 258.508H170.367L166.227 270H164.117L160.047 258.508ZM180.406 266.367H173.555C173.654 266.971 173.917 267.453 174.344 267.812C174.776 268.167 175.326 268.344 175.992 268.344C176.789 268.344 177.474 268.065 178.047 267.508L179.844 268.352C179.396 268.987 178.859 269.458 178.234 269.766C177.609 270.068 176.867 270.219 176.008 270.219C174.674 270.219 173.589 269.799 172.75 268.961C171.911 268.117 171.492 267.062 171.492 265.797C171.492 264.5 171.909 263.424 172.742 262.57C173.581 261.711 174.63 261.281 175.891 261.281C177.229 261.281 178.318 261.711 179.156 262.57C179.995 263.424 180.414 264.555 180.414 265.961L180.406 266.367ZM178.266 264.688C178.125 264.214 177.846 263.828 177.43 263.531C177.018 263.234 176.539 263.086 175.992 263.086C175.398 263.086 174.878 263.253 174.43 263.586C174.148 263.794 173.888 264.161 173.648 264.688H178.266ZM181.641 261.5H183.469V262.57C183.667 262.148 183.93 261.828 184.258 261.609C184.586 261.391 184.945 261.281 185.336 261.281C185.612 261.281 185.901 261.354 186.203 261.5L185.539 263.336C185.289 263.211 185.083 263.148 184.922 263.148C184.594 263.148 184.315 263.352 184.086 263.758C183.862 264.164 183.75 264.961 183.75 266.148L183.758 266.562V270H181.641V261.5ZM188.102 258C188.477 258 188.797 258.135 189.062 258.406C189.333 258.677 189.469 259.005 189.469 259.391C189.469 259.771 189.336 260.096 189.07 260.367C188.805 260.633 188.487 260.766 188.117 260.766C187.737 260.766 187.411 260.63 187.141 260.359C186.875 260.083 186.742 259.75 186.742 259.359C186.742 258.984 186.875 258.664 187.141 258.398C187.406 258.133 187.727 258 188.102 258ZM187.031 261.5H189.172V270H187.031V261.5ZM190.094 261.5H190.852C190.857 260.385 190.875 259.727 190.906 259.523C190.964 259.055 191.159 258.685 191.492 258.414C191.831 258.138 192.307 258 192.922 258C193.365 258 193.865 258.102 194.422 258.305V259.93C194.115 259.841 193.862 259.797 193.664 259.797C193.414 259.797 193.232 259.849 193.117 259.953C193.034 260.031 192.992 260.193 192.992 260.438L192.984 261.5H194.336V263.312H192.984V270H190.852V263.312H190.094V261.5ZM196.43 258C196.805 258 197.125 258.135 197.391 258.406C197.661 258.677 197.797 259.005 197.797 259.391C197.797 259.771 197.664 260.096 197.398 260.367C197.133 260.633 196.815 260.766 196.445 260.766C196.065 260.766 195.74 260.63 195.469 260.359C195.203 260.083 195.07 259.75 195.07 259.359C195.07 258.984 195.203 258.664 195.469 258.398C195.734 258.133 196.055 258 196.43 258ZM195.359 261.5H197.5V270H195.359V261.5ZM207.758 263.219L205.984 264.195C205.651 263.846 205.32 263.604 204.992 263.469C204.669 263.333 204.289 263.266 203.852 263.266C203.055 263.266 202.409 263.505 201.914 263.984C201.424 264.458 201.18 265.068 201.18 265.812C201.18 266.536 201.417 267.128 201.891 267.586C202.365 268.044 202.987 268.273 203.758 268.273C204.711 268.273 205.453 267.948 205.984 267.297L207.664 268.445C206.753 269.628 205.466 270.219 203.805 270.219C202.31 270.219 201.138 269.776 200.289 268.891C199.445 268.005 199.023 266.969 199.023 265.781C199.023 264.958 199.229 264.201 199.641 263.508C200.052 262.815 200.625 262.271 201.359 261.875C202.099 261.479 202.924 261.281 203.836 261.281C204.68 261.281 205.438 261.451 206.109 261.789C206.781 262.122 207.331 262.599 207.758 263.219ZM215.969 261.5H218.094V270H215.969V269.102C215.552 269.497 215.133 269.784 214.711 269.961C214.294 270.133 213.841 270.219 213.352 270.219C212.253 270.219 211.302 269.794 210.5 268.945C209.698 268.091 209.297 267.031 209.297 265.766C209.297 264.453 209.685 263.378 210.461 262.539C211.237 261.701 212.18 261.281 213.289 261.281C213.799 261.281 214.279 261.378 214.727 261.57C215.174 261.763 215.589 262.052 215.969 262.438V261.5ZM213.727 263.25C213.065 263.25 212.516 263.484 212.078 263.953C211.641 264.417 211.422 265.013 211.422 265.742C211.422 266.477 211.643 267.081 212.086 267.555C212.534 268.029 213.083 268.266 213.734 268.266C214.406 268.266 214.964 268.034 215.406 267.57C215.849 267.102 216.07 266.49 216.07 265.734C216.07 264.995 215.849 264.396 215.406 263.938C214.964 263.479 214.404 263.25 213.727 263.25ZM220.508 258.367H222.633V261.5H223.898V263.336H222.633V270H220.508V263.336H219.414V261.5H220.508V258.367ZM225.883 258C226.258 258 226.578 258.135 226.844 258.406C227.115 258.677 227.25 259.005 227.25 259.391C227.25 259.771 227.117 260.096 226.852 260.367C226.586 260.633 226.268 260.766 225.898 260.766C225.518 260.766 225.193 260.63 224.922 260.359C224.656 260.083 224.523 259.75 224.523 259.359C224.523 258.984 224.656 258.664 224.922 258.398C225.188 258.133 225.508 258 225.883 258ZM224.812 261.5H226.953V270H224.812V261.5ZM232.883 261.281C233.685 261.281 234.438 261.482 235.141 261.883C235.849 262.284 236.401 262.828 236.797 263.516C237.193 264.203 237.391 264.945 237.391 265.742C237.391 266.544 237.19 267.294 236.789 267.992C236.393 268.69 235.852 269.237 235.164 269.633C234.477 270.023 233.719 270.219 232.891 270.219C231.672 270.219 230.63 269.786 229.766 268.922C228.906 268.052 228.477 266.997 228.477 265.758C228.477 264.43 228.964 263.323 229.938 262.438C230.792 261.667 231.773 261.281 232.883 261.281ZM232.914 263.289C232.253 263.289 231.701 263.521 231.258 263.984C230.82 264.443 230.602 265.031 230.602 265.75C230.602 266.49 230.818 267.089 231.25 267.547C231.688 268.005 232.24 268.234 232.906 268.234C233.573 268.234 234.128 268.003 234.57 267.539C235.013 267.076 235.234 266.479 235.234 265.75C235.234 265.021 235.016 264.43 234.578 263.977C234.146 263.518 233.591 263.289 232.914 263.289ZM239.141 261.5H241.266V262.367C241.75 261.961 242.188 261.68 242.578 261.523C242.974 261.362 243.378 261.281 243.789 261.281C244.633 261.281 245.349 261.576 245.938 262.164C246.432 262.664 246.68 263.404 246.68 264.383V270H244.57V266.273C244.57 265.258 244.523 264.583 244.43 264.25C244.341 263.917 244.182 263.664 243.953 263.492C243.729 263.315 243.451 263.227 243.117 263.227C242.685 263.227 242.312 263.372 242 263.664C241.693 263.951 241.479 264.349 241.359 264.859C241.297 265.125 241.266 265.701 241.266 266.586V270H239.141V261.5Z" fill="#404040"/>
<path d="M23.6084 293.944H24.6406L26.6846 301.19L29.5693 293.944H29.7744L32.625 301.19L34.71 293.944H35.7354L32.8506 304H32.6592L29.6787 296.392L26.6367 304H26.4453L23.6084 293.944ZM43.7197 301.532L44.5264 301.956C44.262 302.476 43.9567 302.895 43.6104 303.214C43.264 303.533 42.8743 303.777 42.4414 303.945C42.0085 304.109 41.5186 304.191 40.9717 304.191C39.7594 304.191 38.8115 303.795 38.1279 303.002C37.4443 302.204 37.1025 301.304 37.1025 300.302C37.1025 299.358 37.3919 298.518 37.9707 297.779C38.7044 296.84 39.6865 296.371 40.917 296.371C42.1839 296.371 43.1956 296.852 43.9521 297.813C44.4899 298.493 44.7633 299.34 44.7725 300.356H38.0869C38.1051 301.222 38.3809 301.933 38.9141 302.489C39.4473 303.041 40.1058 303.316 40.8896 303.316C41.2679 303.316 41.6348 303.25 41.9902 303.118C42.3503 302.986 42.6556 302.811 42.9062 302.592C43.1569 302.373 43.4281 302.02 43.7197 301.532ZM43.7197 299.529C43.5921 299.019 43.4053 298.611 43.1592 298.306C42.9176 298 42.5964 297.754 42.1953 297.567C41.7943 297.381 41.3727 297.287 40.9307 297.287C40.2015 297.287 39.5749 297.522 39.0508 297.991C38.668 298.333 38.3786 298.846 38.1826 299.529H43.7197ZM50.4463 293.691H51.4033V297.896C51.7907 297.385 52.2168 297.005 52.6816 296.754C53.1465 296.499 53.6501 296.371 54.1924 296.371C54.7484 296.371 55.2406 296.512 55.6689 296.795C56.1019 297.077 56.4209 297.458 56.626 297.937C56.8311 298.41 56.9336 299.156 56.9336 300.172V304H55.9766V300.452C55.9766 299.595 55.9424 299.023 55.874 298.736C55.7555 298.244 55.5391 297.875 55.2246 297.629C54.9147 297.378 54.5068 297.253 54.001 297.253C53.4222 297.253 52.9027 297.444 52.4424 297.827C51.9867 298.21 51.6859 298.684 51.54 299.249C51.4489 299.614 51.4033 300.288 51.4033 301.272V304H50.4463V293.691ZM66.4014 296.562V304H65.458V302.722C65.057 303.209 64.6058 303.576 64.1045 303.822C63.6077 304.068 63.0632 304.191 62.4707 304.191C61.418 304.191 60.5179 303.811 59.7705 303.05C59.0277 302.284 58.6562 301.354 58.6562 300.261C58.6562 299.19 59.0322 298.274 59.7842 297.513C60.5361 296.752 61.4408 296.371 62.498 296.371C63.1087 296.371 63.6602 296.501 64.1523 296.761C64.6491 297.021 65.0843 297.41 65.458 297.93V296.562H66.4014ZM62.5732 297.294C62.04 297.294 61.5479 297.426 61.0967 297.69C60.6455 297.95 60.2855 298.317 60.0166 298.791C59.7523 299.265 59.6201 299.766 59.6201 300.295C59.6201 300.819 59.7546 301.32 60.0234 301.799C60.2923 302.277 60.6523 302.651 61.1035 302.92C61.5592 303.184 62.0469 303.316 62.5664 303.316C63.0905 303.316 63.5872 303.184 64.0566 302.92C64.526 302.656 64.8861 302.298 65.1367 301.847C65.3919 301.396 65.5195 300.887 65.5195 300.322C65.5195 299.461 65.2347 298.741 64.665 298.162C64.0999 297.583 63.4027 297.294 62.5732 297.294ZM67.8574 296.562H68.876L71.3643 301.977L73.832 296.562H74.8574L71.4531 304H71.2822L67.8574 296.562ZM82.5889 301.532L83.3955 301.956C83.1312 302.476 82.8258 302.895 82.4795 303.214C82.1331 303.533 81.7435 303.777 81.3105 303.945C80.8776 304.109 80.3877 304.191 79.8408 304.191C78.6286 304.191 77.6807 303.795 76.9971 303.002C76.3135 302.204 75.9717 301.304 75.9717 300.302C75.9717 299.358 76.2611 298.518 76.8398 297.779C77.5736 296.84 78.5557 296.371 79.7861 296.371C81.0531 296.371 82.0648 296.852 82.8213 297.813C83.359 298.493 83.6325 299.34 83.6416 300.356H76.9561C76.9743 301.222 77.25 301.933 77.7832 302.489C78.3164 303.041 78.9749 303.316 79.7588 303.316C80.137 303.316 80.5039 303.25 80.8594 303.118C81.2194 302.986 81.5247 302.811 81.7754 302.592C82.026 302.373 82.2972 302.02 82.5889 301.532ZM82.5889 299.529C82.4613 299.019 82.2744 298.611 82.0283 298.306C81.7868 298 81.4655 297.754 81.0645 297.567C80.6634 297.381 80.2419 297.287 79.7998 297.287C79.0706 297.287 78.444 297.522 77.9199 297.991C77.5371 298.333 77.2477 298.846 77.0518 299.529H82.5889ZM93.0547 297.376L92.4395 298.012C91.929 297.515 91.43 297.267 90.9424 297.267C90.6325 297.267 90.3659 297.369 90.1426 297.574C89.9238 297.779 89.8145 298.019 89.8145 298.292C89.8145 298.534 89.9056 298.764 90.0879 298.982C90.2702 299.206 90.653 299.468 91.2363 299.769C91.9473 300.138 92.4303 300.493 92.6855 300.835C92.9362 301.181 93.0615 301.571 93.0615 302.004C93.0615 302.615 92.8473 303.132 92.4189 303.556C91.9906 303.979 91.4551 304.191 90.8125 304.191C90.3841 304.191 89.974 304.098 89.582 303.911C89.1947 303.724 88.8734 303.467 88.6182 303.139L89.2197 302.455C89.7074 303.007 90.2246 303.282 90.7715 303.282C91.1543 303.282 91.4801 303.159 91.749 302.913C92.0179 302.667 92.1523 302.378 92.1523 302.045C92.1523 301.771 92.0635 301.528 91.8857 301.313C91.708 301.104 91.307 300.84 90.6826 300.521C90.0127 300.174 89.557 299.832 89.3154 299.495C89.0739 299.158 88.9531 298.773 88.9531 298.34C88.9531 297.775 89.1445 297.305 89.5273 296.932C89.9147 296.558 90.4023 296.371 90.9902 296.371C91.6738 296.371 92.362 296.706 93.0547 297.376ZM101.019 301.532L101.825 301.956C101.561 302.476 101.256 302.895 100.909 303.214C100.563 303.533 100.173 303.777 99.7402 303.945C99.3073 304.109 98.8174 304.191 98.2705 304.191C97.0583 304.191 96.1104 303.795 95.4268 303.002C94.7432 302.204 94.4014 301.304 94.4014 300.302C94.4014 299.358 94.6908 298.518 95.2695 297.779C96.0033 296.84 96.9854 296.371 98.2158 296.371C99.4827 296.371 100.494 296.852 101.251 297.813C101.789 298.493 102.062 299.34 102.071 300.356H95.3857C95.404 301.222 95.6797 301.933 96.2129 302.489C96.7461 303.041 97.4046 303.316 98.1885 303.316C98.5667 303.316 98.9336 303.25 99.2891 303.118C99.6491 302.986 99.9544 302.811 100.205 302.592C100.456 302.373 100.727 302.02 101.019 301.532ZM101.019 299.529C100.891 299.019 100.704 298.611 100.458 298.306C100.216 298 99.8952 297.754 99.4941 297.567C99.0931 297.381 98.6715 297.287 98.2295 297.287C97.5003 297.287 96.8737 297.522 96.3496 297.991C95.9668 298.333 95.6774 298.846 95.4814 299.529H101.019ZM103.862 296.562H104.819V297.896C105.202 297.385 105.626 297.005 106.091 296.754C106.556 296.499 107.062 296.371 107.608 296.371C108.164 296.371 108.657 296.512 109.085 296.795C109.518 297.077 109.837 297.458 110.042 297.937C110.247 298.415 110.35 299.16 110.35 300.172V304H109.399V300.452C109.399 299.595 109.363 299.023 109.29 298.736C109.176 298.244 108.962 297.875 108.647 297.629C108.333 297.378 107.923 297.253 107.417 297.253C106.838 297.253 106.319 297.444 105.858 297.827C105.403 298.21 105.102 298.684 104.956 299.249C104.865 299.618 104.819 300.293 104.819 301.272V304H103.862V296.562ZM113.241 293.801H114.205V296.562H115.723V297.383H114.205V304H113.241V297.383H111.936V296.562H113.241V293.801ZM128.444 296.562V304H127.501V302.722C127.1 303.209 126.649 303.576 126.147 303.822C125.651 304.068 125.106 304.191 124.514 304.191C123.461 304.191 122.561 303.811 121.813 303.05C121.071 302.284 120.699 301.354 120.699 300.261C120.699 299.19 121.075 298.274 121.827 297.513C122.579 296.752 123.484 296.371 124.541 296.371C125.152 296.371 125.703 296.501 126.195 296.761C126.692 297.021 127.127 297.41 127.501 297.93V296.562H128.444ZM124.616 297.294C124.083 297.294 123.591 297.426 123.14 297.69C122.688 297.95 122.328 298.317 122.06 298.791C121.795 299.265 121.663 299.766 121.663 300.295C121.663 300.819 121.798 301.32 122.066 301.799C122.335 302.277 122.695 302.651 123.146 302.92C123.602 303.184 124.09 303.316 124.609 303.316C125.133 303.316 125.63 303.184 126.1 302.92C126.569 302.656 126.929 302.298 127.18 301.847C127.435 301.396 127.562 300.887 127.562 300.322C127.562 299.461 127.278 298.741 126.708 298.162C126.143 297.583 125.446 297.294 124.616 297.294ZM133.605 302.127L134.46 301.614C135.062 302.722 135.757 303.275 136.545 303.275C136.882 303.275 137.199 303.198 137.495 303.043C137.791 302.883 138.017 302.672 138.172 302.407C138.327 302.143 138.404 301.863 138.404 301.566C138.404 301.229 138.29 300.899 138.062 300.575C137.748 300.129 137.174 299.591 136.34 298.962C135.501 298.328 134.979 297.87 134.774 297.588C134.419 297.114 134.241 296.601 134.241 296.05C134.241 295.612 134.346 295.214 134.556 294.854C134.765 294.493 135.059 294.211 135.438 294.006C135.82 293.796 136.235 293.691 136.682 293.691C137.156 293.691 137.598 293.81 138.008 294.047C138.423 294.279 138.86 294.71 139.32 295.339L138.5 295.961C138.122 295.46 137.798 295.129 137.529 294.97C137.265 294.81 136.976 294.73 136.661 294.73C136.256 294.73 135.923 294.854 135.663 295.1C135.408 295.346 135.28 295.649 135.28 296.009C135.28 296.228 135.326 296.439 135.417 296.645C135.508 296.85 135.674 297.073 135.916 297.314C136.048 297.442 136.481 297.777 137.215 298.319C138.085 298.962 138.682 299.534 139.006 300.035C139.329 300.536 139.491 301.04 139.491 301.546C139.491 302.275 139.213 302.909 138.657 303.446C138.106 303.984 137.434 304.253 136.641 304.253C136.03 304.253 135.476 304.091 134.979 303.768C134.483 303.439 134.025 302.893 133.605 302.127ZM141.159 304L142.588 293.944H142.752L146.84 302.195L150.887 293.944H151.051L152.493 304H151.502L150.518 296.809L146.963 304H146.71L143.107 296.754L142.13 304H141.159ZM153.443 302.127L154.298 301.614C154.899 302.722 155.594 303.275 156.383 303.275C156.72 303.275 157.037 303.198 157.333 303.043C157.629 302.883 157.855 302.672 158.01 302.407C158.165 302.143 158.242 301.863 158.242 301.566C158.242 301.229 158.128 300.899 157.9 300.575C157.586 300.129 157.012 299.591 156.178 298.962C155.339 298.328 154.817 297.87 154.612 297.588C154.257 297.114 154.079 296.601 154.079 296.05C154.079 295.612 154.184 295.214 154.394 294.854C154.603 294.493 154.897 294.211 155.275 294.006C155.658 293.796 156.073 293.691 156.52 293.691C156.993 293.691 157.436 293.81 157.846 294.047C158.26 294.279 158.698 294.71 159.158 295.339L158.338 295.961C157.96 295.46 157.636 295.129 157.367 294.97C157.103 294.81 156.813 294.73 156.499 294.73C156.093 294.73 155.761 294.854 155.501 295.1C155.246 295.346 155.118 295.649 155.118 296.009C155.118 296.228 155.164 296.439 155.255 296.645C155.346 296.85 155.512 297.073 155.754 297.314C155.886 297.442 156.319 297.777 157.053 298.319C157.923 298.962 158.52 299.534 158.844 300.035C159.167 300.536 159.329 301.04 159.329 301.546C159.329 302.275 159.051 302.909 158.495 303.446C157.944 303.984 157.271 304.253 156.479 304.253C155.868 304.253 155.314 304.091 154.817 303.768C154.321 303.439 153.863 302.893 153.443 302.127ZM172.399 298.107L171.641 298.579C170.984 297.709 170.089 297.273 168.954 297.273C168.047 297.273 167.293 297.565 166.691 298.148C166.094 298.732 165.796 299.44 165.796 300.274C165.796 300.817 165.933 301.327 166.206 301.806C166.484 302.284 166.862 302.656 167.341 302.92C167.824 303.184 168.364 303.316 168.961 303.316C170.055 303.316 170.948 302.881 171.641 302.011L172.399 302.51C172.044 303.043 171.565 303.458 170.964 303.754C170.367 304.046 169.686 304.191 168.92 304.191C167.744 304.191 166.769 303.818 165.994 303.07C165.219 302.323 164.832 301.414 164.832 300.343C164.832 299.623 165.012 298.955 165.372 298.34C165.737 297.72 166.236 297.237 166.869 296.891C167.503 296.544 168.211 296.371 168.995 296.371C169.487 296.371 169.961 296.446 170.417 296.597C170.877 296.747 171.267 296.943 171.586 297.185C171.905 297.426 172.176 297.734 172.399 298.107ZM177.766 296.371C178.91 296.371 179.857 296.786 180.609 297.615C181.293 298.372 181.635 299.267 181.635 300.302C181.635 301.341 181.272 302.25 180.548 303.029C179.828 303.804 178.9 304.191 177.766 304.191C176.626 304.191 175.694 303.804 174.97 303.029C174.25 302.25 173.89 301.341 173.89 300.302C173.89 299.272 174.231 298.379 174.915 297.622C175.667 296.788 176.617 296.371 177.766 296.371ZM177.766 297.308C176.973 297.308 176.291 297.602 175.722 298.189C175.152 298.777 174.867 299.488 174.867 300.322C174.867 300.86 174.997 301.361 175.257 301.826C175.517 302.291 175.868 302.651 176.31 302.906C176.752 303.157 177.237 303.282 177.766 303.282C178.294 303.282 178.78 303.157 179.222 302.906C179.664 302.651 180.015 302.291 180.274 301.826C180.534 301.361 180.664 300.86 180.664 300.322C180.664 299.488 180.377 298.777 179.803 298.189C179.233 297.602 178.554 297.308 177.766 297.308ZM183.419 296.562H184.376V297.896C184.759 297.385 185.183 297.005 185.647 296.754C186.112 296.499 186.618 296.371 187.165 296.371C187.721 296.371 188.213 296.512 188.642 296.795C189.075 297.077 189.394 297.458 189.599 297.937C189.804 298.415 189.906 299.16 189.906 300.172V304H188.956V300.452C188.956 299.595 188.92 299.023 188.847 298.736C188.733 298.244 188.519 297.875 188.204 297.629C187.89 297.378 187.479 297.253 186.974 297.253C186.395 297.253 185.875 297.444 185.415 297.827C184.959 298.21 184.659 298.684 184.513 299.249C184.422 299.618 184.376 300.293 184.376 301.272V304H183.419V296.562ZM192.798 293.801H193.762V296.562H195.279V297.383H193.762V304H192.798V297.383H191.492V296.562H192.798V293.801ZM204.118 296.562V304H203.175V302.722C202.774 303.209 202.323 303.576 201.821 303.822C201.325 304.068 200.78 304.191 200.188 304.191C199.135 304.191 198.235 303.811 197.487 303.05C196.744 302.284 196.373 301.354 196.373 300.261C196.373 299.19 196.749 298.274 197.501 297.513C198.253 296.752 199.158 296.371 200.215 296.371C200.826 296.371 201.377 296.501 201.869 296.761C202.366 297.021 202.801 297.41 203.175 297.93V296.562H204.118ZM200.29 297.294C199.757 297.294 199.265 297.426 198.813 297.69C198.362 297.95 198.002 298.317 197.733 298.791C197.469 299.265 197.337 299.766 197.337 300.295C197.337 300.819 197.471 301.32 197.74 301.799C198.009 302.277 198.369 302.651 198.82 302.92C199.276 303.184 199.764 303.316 200.283 303.316C200.807 303.316 201.304 303.184 201.773 302.92C202.243 302.656 202.603 302.298 202.854 301.847C203.109 301.396 203.236 300.887 203.236 300.322C203.236 299.461 202.951 298.741 202.382 298.162C201.817 297.583 201.119 297.294 200.29 297.294ZM206.613 293.5C206.832 293.5 207.019 293.577 207.174 293.732C207.329 293.887 207.406 294.074 207.406 294.293C207.406 294.507 207.329 294.692 207.174 294.847C207.019 295.002 206.832 295.079 206.613 295.079C206.399 295.079 206.215 295.002 206.06 294.847C205.905 294.692 205.827 294.507 205.827 294.293C205.827 294.074 205.905 293.887 206.06 293.732C206.215 293.577 206.399 293.5 206.613 293.5ZM206.135 296.562H207.099V304H206.135V296.562ZM209.081 296.562H210.038V297.896C210.421 297.385 210.845 297.005 211.31 296.754C211.774 296.499 212.28 296.371 212.827 296.371C213.383 296.371 213.875 296.512 214.304 296.795C214.737 297.077 215.056 297.458 215.261 297.937C215.466 298.415 215.568 299.16 215.568 300.172V304H214.618V300.452C214.618 299.595 214.582 299.023 214.509 298.736C214.395 298.244 214.181 297.875 213.866 297.629C213.552 297.378 213.142 297.253 212.636 297.253C212.057 297.253 211.537 297.444 211.077 297.827C210.621 298.21 210.321 298.684 210.175 299.249C210.084 299.618 210.038 300.293 210.038 301.272V304H209.081V296.562ZM223.888 301.532L224.694 301.956C224.43 302.476 224.125 302.895 223.778 303.214C223.432 303.533 223.042 303.777 222.609 303.945C222.176 304.109 221.687 304.191 221.14 304.191C219.927 304.191 218.979 303.795 218.296 303.002C217.612 302.204 217.271 301.304 217.271 300.302C217.271 299.358 217.56 298.518 218.139 297.779C218.872 296.84 219.854 296.371 221.085 296.371C222.352 296.371 223.364 296.852 224.12 297.813C224.658 298.493 224.931 299.34 224.94 300.356H218.255C218.273 301.222 218.549 301.933 219.082 302.489C219.615 303.041 220.274 303.316 221.058 303.316C221.436 303.316 221.803 303.25 222.158 303.118C222.518 302.986 222.824 302.811 223.074 302.592C223.325 302.373 223.596 302.02 223.888 301.532ZM223.888 299.529C223.76 299.019 223.573 298.611 223.327 298.306C223.086 298 222.764 297.754 222.363 297.567C221.962 297.381 221.541 297.287 221.099 297.287C220.369 297.287 219.743 297.522 219.219 297.991C218.836 298.333 218.547 298.846 218.351 299.529H223.888ZM234.155 293.691V304H233.212V302.722C232.811 303.209 232.36 303.576 231.858 303.822C231.362 304.068 230.817 304.191 230.225 304.191C229.172 304.191 228.272 303.811 227.524 303.05C226.782 302.284 226.41 301.354 226.41 300.261C226.41 299.19 226.786 298.274 227.538 297.513C228.29 296.752 229.195 296.371 230.252 296.371C230.863 296.371 231.414 296.501 231.906 296.761C232.403 297.021 232.838 297.41 233.212 297.93V293.691H234.155ZM230.327 297.294C229.794 297.294 229.302 297.426 228.851 297.69C228.399 297.95 228.039 298.317 227.771 298.791C227.506 299.265 227.374 299.766 227.374 300.295C227.374 300.819 227.508 301.32 227.777 301.799C228.046 302.277 228.406 302.651 228.857 302.92C229.313 303.184 229.801 303.316 230.32 303.316C230.844 303.316 231.341 303.184 231.811 302.92C232.28 302.656 232.64 302.298 232.891 301.847C233.146 301.396 233.273 300.887 233.273 300.322C233.273 299.461 232.989 298.741 232.419 298.162C231.854 297.583 231.157 297.294 230.327 297.294ZM244.279 293.691L245.106 294.231L242.393 298.347C242.757 298.224 243.099 298.162 243.418 298.162C244.215 298.162 244.892 298.451 245.448 299.03C246.004 299.604 246.282 300.313 246.282 301.156C246.282 301.735 246.148 302.259 245.879 302.729C245.61 303.193 245.227 303.565 244.73 303.843C244.238 304.116 243.707 304.253 243.138 304.253C242.586 304.253 242.074 304.121 241.6 303.856C241.13 303.588 240.761 303.212 240.492 302.729C240.223 302.245 240.089 301.728 240.089 301.177C240.089 300.767 240.171 300.336 240.335 299.885C240.504 299.429 240.802 298.882 241.23 298.244L244.279 293.691ZM243.179 299.044C242.595 299.044 242.096 299.251 241.682 299.666C241.271 300.076 241.066 300.575 241.066 301.163C241.066 301.746 241.271 302.245 241.682 302.66C242.096 303.07 242.595 303.275 243.179 303.275C243.762 303.275 244.259 303.07 244.669 302.66C245.084 302.245 245.291 301.746 245.291 301.163C245.291 300.575 245.084 300.076 244.669 299.666C244.259 299.251 243.762 299.044 243.179 299.044ZM247.355 299.803H251.115V300.637H247.355V299.803ZM260.05 293.691V304H259.106V302.722C258.705 303.209 258.254 303.576 257.753 303.822C257.256 304.068 256.712 304.191 256.119 304.191C255.066 304.191 254.166 303.811 253.419 303.05C252.676 302.284 252.305 301.354 252.305 300.261C252.305 299.19 252.681 298.274 253.433 297.513C254.185 296.752 255.089 296.371 256.146 296.371C256.757 296.371 257.309 296.501 257.801 296.761C258.298 297.021 258.733 297.41 259.106 297.93V293.691H260.05ZM256.222 297.294C255.688 297.294 255.196 297.426 254.745 297.69C254.294 297.95 253.934 298.317 253.665 298.791C253.401 299.265 253.269 299.766 253.269 300.295C253.269 300.819 253.403 301.32 253.672 301.799C253.941 302.277 254.301 302.651 254.752 302.92C255.208 303.184 255.695 303.316 256.215 303.316C256.739 303.316 257.236 303.184 257.705 302.92C258.174 302.656 258.535 302.298 258.785 301.847C259.04 301.396 259.168 300.887 259.168 300.322C259.168 299.461 258.883 298.741 258.313 298.162C257.748 297.583 257.051 297.294 256.222 297.294ZM262.559 293.5C262.777 293.5 262.964 293.577 263.119 293.732C263.274 293.887 263.352 294.074 263.352 294.293C263.352 294.507 263.274 294.692 263.119 294.847C262.964 295.002 262.777 295.079 262.559 295.079C262.344 295.079 262.16 295.002 262.005 294.847C261.85 294.692 261.772 294.507 261.772 294.293C261.772 294.074 261.85 293.887 262.005 293.732C262.16 293.577 262.344 293.5 262.559 293.5ZM262.08 296.562H263.044V304H262.08V296.562ZM271.432 296.562H272.396V302.489C272.396 303.533 272.304 304.296 272.122 304.779C271.871 305.463 271.436 305.989 270.816 306.358C270.197 306.728 269.451 306.912 268.581 306.912C267.943 306.912 267.369 306.821 266.858 306.639C266.353 306.461 265.94 306.219 265.621 305.914C265.302 305.613 265.008 305.171 264.739 304.588H265.778C266.061 305.08 266.425 305.445 266.872 305.682C267.319 305.919 267.872 306.037 268.533 306.037C269.185 306.037 269.734 305.914 270.181 305.668C270.632 305.426 270.953 305.121 271.145 304.752C271.336 304.383 271.432 303.788 271.432 302.968V302.585C271.072 303.041 270.632 303.392 270.112 303.638C269.593 303.879 269.041 304 268.458 304C267.774 304 267.132 303.831 266.53 303.494C265.929 303.152 265.464 302.694 265.136 302.12C264.808 301.546 264.644 300.915 264.644 300.227C264.644 299.538 264.814 298.898 265.156 298.306C265.498 297.709 265.97 297.237 266.571 296.891C267.177 296.544 267.815 296.371 268.485 296.371C269.041 296.371 269.559 296.487 270.037 296.72C270.52 296.948 270.985 297.326 271.432 297.854V296.562ZM268.608 297.294C268.066 297.294 267.562 297.426 267.098 297.69C266.633 297.95 266.268 298.312 266.004 298.777C265.74 299.238 265.607 299.737 265.607 300.274C265.607 301.09 265.881 301.765 266.428 302.298C266.975 302.831 267.683 303.098 268.554 303.098C269.433 303.098 270.14 302.833 270.673 302.305C271.211 301.776 271.479 301.081 271.479 300.22C271.479 299.659 271.356 299.16 271.11 298.723C270.864 298.281 270.516 297.932 270.064 297.677C269.613 297.422 269.128 297.294 268.608 297.294ZM274.781 293.5C275 293.5 275.187 293.577 275.342 293.732C275.497 293.887 275.574 294.074 275.574 294.293C275.574 294.507 275.497 294.692 275.342 294.847C275.187 295.002 275 295.079 274.781 295.079C274.567 295.079 274.382 295.002 274.228 294.847C274.073 294.692 273.995 294.507 273.995 294.293C273.995 294.074 274.073 293.887 274.228 293.732C274.382 293.577 274.567 293.5 274.781 293.5ZM274.303 296.562H275.267V304H274.303V296.562ZM278.083 293.801H279.047V296.562H280.564V297.383H279.047V304H278.083V297.383H276.777V296.562H278.083V293.801ZM290.825 293.691C292.347 293.691 293.621 294.2 294.646 295.216C295.672 296.232 296.185 297.483 296.185 298.969C296.185 300.441 295.672 301.689 294.646 302.715C293.626 303.74 292.379 304.253 290.907 304.253C289.417 304.253 288.159 303.743 287.134 302.722C286.108 301.701 285.596 300.466 285.596 299.017C285.596 298.05 285.828 297.155 286.293 296.33C286.762 295.505 287.4 294.86 288.207 294.396C289.014 293.926 289.886 293.691 290.825 293.691ZM290.873 294.676C290.13 294.676 289.426 294.869 288.761 295.257C288.095 295.644 287.576 296.166 287.202 296.822C286.828 297.479 286.642 298.21 286.642 299.017C286.642 300.211 287.054 301.22 287.879 302.045C288.708 302.865 289.706 303.275 290.873 303.275C291.652 303.275 292.372 303.086 293.033 302.708C293.699 302.33 294.216 301.812 294.585 301.156C294.959 300.5 295.146 299.771 295.146 298.969C295.146 298.171 294.959 297.451 294.585 296.809C294.216 296.161 293.694 295.644 293.02 295.257C292.345 294.869 291.63 294.676 290.873 294.676ZM297.203 294.922V293.944H302.72V294.922H300.478V304H299.452V294.922H297.203ZM304.155 293.944H306.158C307.307 293.944 308.081 293.994 308.482 294.095C309.057 294.236 309.526 294.528 309.891 294.97C310.255 295.407 310.438 295.959 310.438 296.624C310.438 297.294 310.26 297.848 309.904 298.285C309.549 298.718 309.059 299.01 308.435 299.16C307.979 299.27 307.127 299.324 305.878 299.324H305.16V304H304.155V293.944ZM305.16 294.922V298.34L306.862 298.36C307.55 298.36 308.054 298.299 308.373 298.176C308.692 298.048 308.943 297.845 309.125 297.567C309.307 297.285 309.398 296.97 309.398 296.624C309.398 296.287 309.307 295.979 309.125 295.701C308.943 295.419 308.701 295.218 308.4 295.1C308.104 294.981 307.617 294.922 306.938 294.922H305.16ZM323.392 298.107L322.633 298.579C321.977 297.709 321.081 297.273 319.946 297.273C319.039 297.273 318.285 297.565 317.684 298.148C317.087 298.732 316.788 299.44 316.788 300.274C316.788 300.817 316.925 301.327 317.198 301.806C317.476 302.284 317.854 302.656 318.333 302.92C318.816 303.184 319.356 303.316 319.953 303.316C321.047 303.316 321.94 302.881 322.633 302.011L323.392 302.51C323.036 303.043 322.558 303.458 321.956 303.754C321.359 304.046 320.678 304.191 319.912 304.191C318.736 304.191 317.761 303.818 316.986 303.07C316.212 302.323 315.824 301.414 315.824 300.343C315.824 299.623 316.004 298.955 316.364 298.34C316.729 297.72 317.228 297.237 317.861 296.891C318.495 296.544 319.203 296.371 319.987 296.371C320.479 296.371 320.953 296.446 321.409 296.597C321.869 296.747 322.259 296.943 322.578 297.185C322.897 297.426 323.168 297.734 323.392 298.107ZM328.758 296.371C329.902 296.371 330.85 296.786 331.602 297.615C332.285 298.372 332.627 299.267 332.627 300.302C332.627 301.341 332.265 302.25 331.54 303.029C330.82 303.804 329.893 304.191 328.758 304.191C327.618 304.191 326.687 303.804 325.962 303.029C325.242 302.25 324.882 301.341 324.882 300.302C324.882 299.272 325.224 298.379 325.907 297.622C326.659 296.788 327.609 296.371 328.758 296.371ZM328.758 297.308C327.965 297.308 327.284 297.602 326.714 298.189C326.144 298.777 325.859 299.488 325.859 300.322C325.859 300.86 325.989 301.361 326.249 301.826C326.509 302.291 326.86 302.651 327.302 302.906C327.744 303.157 328.229 303.282 328.758 303.282C329.286 303.282 329.772 303.157 330.214 302.906C330.656 302.651 331.007 302.291 331.267 301.826C331.526 301.361 331.656 300.86 331.656 300.322C331.656 299.488 331.369 298.777 330.795 298.189C330.225 297.602 329.546 297.308 328.758 297.308ZM341.835 293.691V304H340.892V302.722C340.491 303.209 340.039 303.576 339.538 303.822C339.041 304.068 338.497 304.191 337.904 304.191C336.852 304.191 335.951 303.811 335.204 303.05C334.461 302.284 334.09 301.354 334.09 300.261C334.09 299.19 334.466 298.274 335.218 297.513C335.97 296.752 336.874 296.371 337.932 296.371C338.542 296.371 339.094 296.501 339.586 296.761C340.083 297.021 340.518 297.41 340.892 297.93V293.691H341.835ZM338.007 297.294C337.474 297.294 336.981 297.426 336.53 297.69C336.079 297.95 335.719 298.317 335.45 298.791C335.186 299.265 335.054 299.766 335.054 300.295C335.054 300.819 335.188 301.32 335.457 301.799C335.726 302.277 336.086 302.651 336.537 302.92C336.993 303.184 337.48 303.316 338 303.316C338.524 303.316 339.021 303.184 339.49 302.92C339.96 302.656 340.32 302.298 340.57 301.847C340.826 301.396 340.953 300.887 340.953 300.322C340.953 299.461 340.668 298.741 340.099 298.162C339.534 297.583 338.836 297.294 338.007 297.294ZM350.271 301.532L351.077 301.956C350.813 302.476 350.507 302.895 350.161 303.214C349.815 303.533 349.425 303.777 348.992 303.945C348.559 304.109 348.069 304.191 347.522 304.191C346.31 304.191 345.362 303.795 344.679 303.002C343.995 302.204 343.653 301.304 343.653 300.302C343.653 299.358 343.943 298.518 344.521 297.779C345.255 296.84 346.237 296.371 347.468 296.371C348.735 296.371 349.746 296.852 350.503 297.813C351.041 298.493 351.314 299.34 351.323 300.356H344.638C344.656 301.222 344.932 301.933 345.465 302.489C345.998 303.041 346.657 303.316 347.44 303.316C347.819 303.316 348.186 303.25 348.541 303.118C348.901 302.986 349.206 302.811 349.457 302.592C349.708 302.373 349.979 302.02 350.271 301.532ZM350.271 299.529C350.143 299.019 349.956 298.611 349.71 298.306C349.468 298 349.147 297.754 348.746 297.567C348.345 297.381 347.924 297.287 347.481 297.287C346.752 297.287 346.126 297.522 345.602 297.991C345.219 298.333 344.929 298.846 344.733 299.529H350.271ZM110.637 314.801H111.601V317.562H113.118V318.383H111.601V325H110.637V318.383H109.331V317.562H110.637V314.801ZM118.067 317.371C119.211 317.371 120.159 317.786 120.911 318.615C121.595 319.372 121.937 320.267 121.937 321.302C121.937 322.341 121.574 323.25 120.85 324.029C120.13 324.804 119.202 325.191 118.067 325.191C116.928 325.191 115.996 324.804 115.271 324.029C114.551 323.25 114.191 322.341 114.191 321.302C114.191 320.272 114.533 319.379 115.217 318.622C115.969 317.788 116.919 317.371 118.067 317.371ZM118.067 318.308C117.274 318.308 116.593 318.602 116.023 319.189C115.454 319.777 115.169 320.488 115.169 321.322C115.169 321.86 115.299 322.361 115.559 322.826C115.818 323.291 116.169 323.651 116.611 323.906C117.053 324.157 117.539 324.282 118.067 324.282C118.596 324.282 119.081 324.157 119.523 323.906C119.965 323.651 120.316 323.291 120.576 322.826C120.836 322.361 120.966 321.86 120.966 321.322C120.966 320.488 120.679 319.777 120.104 319.189C119.535 318.602 118.856 318.308 118.067 318.308ZM127.604 317.562H128.561V318.896C128.943 318.385 129.367 318.005 129.832 317.754C130.297 317.499 130.803 317.371 131.35 317.371C131.906 317.371 132.398 317.512 132.826 317.795C133.259 318.077 133.578 318.458 133.783 318.937C133.988 319.415 134.091 320.16 134.091 321.172V325H133.141V321.452C133.141 320.595 133.104 320.023 133.031 319.736C132.917 319.244 132.703 318.875 132.389 318.629C132.074 318.378 131.664 318.253 131.158 318.253C130.579 318.253 130.06 318.444 129.6 318.827C129.144 319.21 128.843 319.684 128.697 320.249C128.606 320.618 128.561 321.293 128.561 322.272V325H127.604V317.562ZM136.025 317.562H136.989V321.035C136.989 321.883 137.035 322.466 137.126 322.785C137.263 323.241 137.522 323.601 137.905 323.865C138.293 324.13 138.753 324.262 139.286 324.262C139.819 324.262 140.271 324.134 140.64 323.879C141.013 323.619 141.271 323.28 141.412 322.86C141.508 322.573 141.556 321.965 141.556 321.035V317.562H142.533V321.213C142.533 322.238 142.412 323.011 142.171 323.53C141.934 324.05 141.574 324.458 141.091 324.754C140.612 325.046 140.011 325.191 139.286 325.191C138.562 325.191 137.955 325.046 137.468 324.754C136.985 324.458 136.622 324.048 136.381 323.523C136.144 322.995 136.025 322.202 136.025 321.145V317.562ZM144.659 317.562H145.609V318.848C145.942 318.374 146.284 318.027 146.635 317.809C147.118 317.517 147.626 317.371 148.159 317.371C148.519 317.371 148.861 317.442 149.185 317.583C149.508 317.724 149.772 317.913 149.978 318.15C150.183 318.383 150.36 318.718 150.511 319.155C150.83 318.572 151.229 318.13 151.707 317.829C152.186 317.524 152.701 317.371 153.252 317.371C153.767 317.371 154.22 317.501 154.612 317.761C155.009 318.021 155.303 318.383 155.494 318.848C155.686 319.312 155.781 320.01 155.781 320.939V325H154.804V320.939C154.804 320.142 154.747 319.595 154.633 319.299C154.519 318.998 154.323 318.757 154.045 318.574C153.771 318.392 153.443 318.301 153.061 318.301C152.596 318.301 152.17 318.438 151.782 318.711C151.399 318.984 151.119 319.349 150.941 319.805C150.764 320.26 150.675 321.021 150.675 322.088V325H149.725V321.192C149.725 320.295 149.668 319.686 149.554 319.367C149.444 319.044 149.251 318.786 148.973 318.595C148.695 318.399 148.364 318.301 147.981 318.301C147.539 318.301 147.125 318.435 146.737 318.704C146.354 318.968 146.07 319.326 145.883 319.777C145.701 320.229 145.609 320.919 145.609 321.849V325H144.659V317.562ZM157.866 325V314.691H158.816V318.841C159.217 318.349 159.666 317.982 160.163 317.74C160.66 317.494 161.204 317.371 161.797 317.371C162.85 317.371 163.747 317.754 164.49 318.52C165.238 319.281 165.611 320.206 165.611 321.295C165.611 322.37 165.235 323.289 164.483 324.05C163.731 324.811 162.827 325.191 161.77 325.191C161.163 325.191 160.614 325.062 160.122 324.802C159.63 324.542 159.195 324.152 158.816 323.633V325H157.866ZM161.694 324.269C162.228 324.269 162.72 324.139 163.171 323.879C163.622 323.615 163.98 323.245 164.244 322.771C164.513 322.298 164.647 321.796 164.647 321.268C164.647 320.739 164.513 320.235 164.244 319.757C163.975 319.278 163.613 318.907 163.157 318.643C162.706 318.374 162.223 318.239 161.708 318.239C161.184 318.239 160.685 318.374 160.211 318.643C159.742 318.907 159.379 319.265 159.124 319.716C158.873 320.167 158.748 320.675 158.748 321.24C158.748 322.102 159.031 322.822 159.596 323.4C160.165 323.979 160.865 324.269 161.694 324.269ZM173.623 322.532L174.43 322.956C174.165 323.476 173.86 323.895 173.514 324.214C173.167 324.533 172.778 324.777 172.345 324.945C171.912 325.109 171.422 325.191 170.875 325.191C169.663 325.191 168.715 324.795 168.031 324.002C167.348 323.204 167.006 322.304 167.006 321.302C167.006 320.358 167.295 319.518 167.874 318.779C168.608 317.84 169.59 317.371 170.82 317.371C172.087 317.371 173.099 317.852 173.855 318.813C174.393 319.493 174.667 320.34 174.676 321.356H167.99C168.008 322.222 168.284 322.933 168.817 323.489C169.351 324.041 170.009 324.316 170.793 324.316C171.171 324.316 171.538 324.25 171.894 324.118C172.254 323.986 172.559 323.811 172.81 323.592C173.06 323.373 173.331 323.02 173.623 322.532ZM173.623 320.529C173.495 320.019 173.309 319.611 173.062 319.306C172.821 319 172.5 318.754 172.099 318.567C171.698 318.381 171.276 318.287 170.834 318.287C170.105 318.287 169.478 318.522 168.954 318.991C168.571 319.333 168.282 319.846 168.086 320.529H173.623ZM176.104 317.562H177.082V318.649C177.374 318.221 177.681 317.902 178.005 317.692C178.328 317.478 178.666 317.371 179.017 317.371C179.281 317.371 179.563 317.455 179.864 317.624L179.365 318.431C179.165 318.344 178.996 318.301 178.859 318.301C178.54 318.301 178.233 318.433 177.937 318.697C177.64 318.957 177.415 319.363 177.26 319.914C177.141 320.338 177.082 321.195 177.082 322.484V325H176.104V317.562ZM186.017 314.691H186.905L186.707 316.722L188.389 315.519L188.84 316.284L186.946 317.139L188.84 317.979L188.389 318.752L186.707 317.562L186.905 319.593H186.017L186.229 317.562L184.547 318.752L184.096 317.979L186.017 317.139L184.096 316.284L184.547 315.519L186.229 316.722L186.017 314.691ZM191.964 314.691H192.853L192.654 316.722L194.336 315.519L194.787 316.284L192.894 317.139L194.787 317.979L194.336 318.752L192.654 317.562L192.853 319.593H191.964L192.176 317.562L190.494 318.752L190.043 317.979L191.964 317.139L190.043 316.284L190.494 315.519L192.176 316.722L191.964 314.691ZM197.911 314.691H198.8L198.602 316.722L200.283 315.519L200.734 316.284L198.841 317.139L200.734 317.979L200.283 318.752L198.602 317.562L198.8 319.593H197.911L198.123 317.562L196.441 318.752L195.99 317.979L197.911 317.139L195.99 316.284L196.441 315.519L198.123 316.722L197.911 314.691ZM203.858 314.691H204.747L204.549 316.722L206.23 315.519L206.682 316.284L204.788 317.139L206.682 317.979L206.23 318.752L204.549 317.562L204.747 319.593H203.858L204.07 317.562L202.389 318.752L201.938 317.979L203.858 317.139L201.938 316.284L202.389 315.519L204.07 316.722L203.858 314.691ZM213.688 314.691H214.577L214.379 316.722L216.061 315.519L216.512 316.284L214.618 317.139L216.512 317.979L216.061 318.752L214.379 317.562L214.577 319.593H213.688L213.9 317.562L212.219 318.752L211.768 317.979L213.688 317.139L211.768 316.284L212.219 315.519L213.9 316.722L213.688 314.691ZM219.636 314.691H220.524L220.326 316.722L222.008 315.519L222.459 316.284L220.565 317.139L222.459 317.979L222.008 318.752L220.326 317.562L220.524 319.593H219.636L219.848 317.562L218.166 318.752L217.715 317.979L219.636 317.139L217.715 316.284L218.166 315.519L219.848 316.722L219.636 314.691ZM225.583 314.691H226.472L226.273 316.722L227.955 315.519L228.406 316.284L226.513 317.139L228.406 317.979L227.955 318.752L226.273 317.562L226.472 319.593H225.583L225.795 317.562L224.113 318.752L223.662 317.979L225.583 317.139L223.662 316.284L224.113 315.519L225.795 316.722L225.583 314.691ZM231.53 314.691H232.419L232.221 316.722L233.902 315.519L234.354 316.284L232.46 317.139L234.354 317.979L233.902 318.752L232.221 317.562L232.419 319.593H231.53L231.742 317.562L230.061 318.752L229.609 317.979L231.53 317.139L229.609 316.284L230.061 315.519L231.742 316.722L231.53 314.691ZM241.36 314.691H242.249L242.051 316.722L243.732 315.519L244.184 316.284L242.29 317.139L244.184 317.979L243.732 318.752L242.051 317.562L242.249 319.593H241.36L241.572 317.562L239.891 318.752L239.439 317.979L241.36 317.139L239.439 316.284L239.891 315.519L241.572 316.722L241.36 314.691ZM247.308 314.691H248.196L247.998 316.722L249.68 315.519L250.131 316.284L248.237 317.139L250.131 317.979L249.68 318.752L247.998 317.562L248.196 319.593H247.308L247.52 317.562L245.838 318.752L245.387 317.979L247.308 317.139L245.387 316.284L245.838 315.519L247.52 316.722L247.308 314.691ZM251.177 319.976C251.177 318.649 251.318 317.624 251.601 316.899C251.888 316.175 252.291 315.626 252.811 315.252C253.33 314.878 253.911 314.691 254.554 314.691C255.205 314.691 255.796 314.881 256.324 315.259C256.853 315.632 257.27 316.195 257.575 316.947C257.885 317.699 258.04 318.709 258.04 319.976C258.04 321.238 257.887 322.243 257.582 322.99C257.281 323.738 256.864 324.303 256.331 324.686C255.798 325.064 255.205 325.253 254.554 325.253C253.911 325.253 253.332 325.068 252.817 324.699C252.302 324.33 251.899 323.781 251.607 323.052C251.32 322.318 251.177 321.293 251.177 319.976ZM252.127 319.996C252.127 321.131 252.227 321.99 252.428 322.573C252.633 323.152 252.934 323.592 253.33 323.893C253.727 324.193 254.146 324.344 254.588 324.344C255.035 324.344 255.451 324.198 255.839 323.906C256.226 323.61 256.52 323.168 256.721 322.58C256.971 321.865 257.097 321.003 257.097 319.996C257.097 318.984 256.985 318.157 256.762 317.515C256.538 316.868 256.229 316.396 255.832 316.1C255.44 315.799 255.025 315.648 254.588 315.648C254.141 315.648 253.722 315.799 253.33 316.1C252.938 316.396 252.64 316.836 252.435 317.419C252.229 317.998 252.127 318.857 252.127 319.996ZM263.632 314.691L264.459 315.231L261.745 319.347C262.11 319.224 262.451 319.162 262.771 319.162C263.568 319.162 264.245 319.451 264.801 320.03C265.357 320.604 265.635 321.313 265.635 322.156C265.635 322.735 265.5 323.259 265.231 323.729C264.963 324.193 264.58 324.565 264.083 324.843C263.591 325.116 263.06 325.253 262.49 325.253C261.939 325.253 261.426 325.121 260.952 324.856C260.483 324.588 260.114 324.212 259.845 323.729C259.576 323.245 259.441 322.728 259.441 322.177C259.441 321.767 259.523 321.336 259.688 320.885C259.856 320.429 260.155 319.882 260.583 319.244L263.632 314.691ZM262.531 320.044C261.948 320.044 261.449 320.251 261.034 320.666C260.624 321.076 260.419 321.575 260.419 322.163C260.419 322.746 260.624 323.245 261.034 323.66C261.449 324.07 261.948 324.275 262.531 324.275C263.115 324.275 263.611 324.07 264.021 323.66C264.436 323.245 264.644 322.746 264.644 322.163C264.644 321.575 264.436 321.076 264.021 320.666C263.611 320.251 263.115 320.044 262.531 320.044Z" fill="black"/>
<path d="M56.2236 466V455.944H58.3086C59.8125 455.944 60.904 456.065 61.583 456.307C62.5583 456.648 63.3193 457.241 63.8662 458.084C64.4176 458.927 64.6934 459.932 64.6934 461.099C64.6934 462.106 64.4746 462.992 64.0371 463.758C63.6042 464.523 63.0391 465.089 62.3418 465.453C61.6491 465.818 60.6761 466 59.4229 466H56.2236ZM57.1875 465.05H58.3496C59.7396 465.05 60.7035 464.963 61.2412 464.79C61.9977 464.544 62.5924 464.102 63.0254 463.464C63.4583 462.821 63.6748 462.037 63.6748 461.112C63.6748 460.142 63.4401 459.312 62.9707 458.624C62.5013 457.936 61.8473 457.464 61.0088 457.209C60.3799 457.018 59.3431 456.922 57.8984 456.922H57.1875V465.05ZM66.8193 455.5C67.0381 455.5 67.2249 455.577 67.3799 455.732C67.5348 455.887 67.6123 456.074 67.6123 456.293C67.6123 456.507 67.5348 456.692 67.3799 456.847C67.2249 457.002 67.0381 457.079 66.8193 457.079C66.6051 457.079 66.4206 457.002 66.2656 456.847C66.1107 456.692 66.0332 456.507 66.0332 456.293C66.0332 456.074 66.1107 455.887 66.2656 455.732C66.4206 455.577 66.6051 455.5 66.8193 455.5ZM66.3408 458.562H67.3047V466H66.3408V458.562ZM76.7109 455.691V466H75.7676V464.722C75.3665 465.209 74.9154 465.576 74.4141 465.822C73.9173 466.068 73.3727 466.191 72.7803 466.191C71.7275 466.191 70.8275 465.811 70.0801 465.05C69.3372 464.284 68.9658 463.354 68.9658 462.261C68.9658 461.19 69.3418 460.274 70.0938 459.513C70.8457 458.752 71.7503 458.371 72.8076 458.371C73.4183 458.371 73.9697 458.501 74.4619 458.761C74.9587 459.021 75.3939 459.41 75.7676 459.93V455.691H76.7109ZM72.8828 459.294C72.3496 459.294 71.8574 459.426 71.4062 459.69C70.9551 459.95 70.5951 460.317 70.3262 460.791C70.0618 461.265 69.9297 461.766 69.9297 462.295C69.9297 462.819 70.0641 463.32 70.333 463.799C70.6019 464.277 70.9619 464.651 71.4131 464.92C71.8688 465.184 72.3564 465.316 72.876 465.316C73.4001 465.316 73.8968 465.184 74.3662 464.92C74.8356 464.656 75.1956 464.298 75.4463 463.847C75.7015 463.396 75.8291 462.887 75.8291 462.322C75.8291 461.461 75.5443 460.741 74.9746 460.162C74.4095 459.583 73.7122 459.294 72.8828 459.294ZM78.8848 458.562H79.8418V459.896C80.2246 459.385 80.6484 459.005 81.1133 458.754C81.5781 458.499 82.084 458.371 82.6309 458.371C83.1868 458.371 83.679 458.512 84.1074 458.795C84.5404 459.077 84.8594 459.458 85.0645 459.937C85.2695 460.415 85.3721 461.16 85.3721 462.172V466H84.4219V462.452C84.4219 461.595 84.3854 461.023 84.3125 460.736C84.1986 460.244 83.9844 459.875 83.6699 459.629C83.3555 459.378 82.9453 459.253 82.4395 459.253C81.8607 459.253 81.3411 459.444 80.8809 459.827C80.4251 460.21 80.1243 460.684 79.9785 461.249C79.8874 461.618 79.8418 462.293 79.8418 463.272V466H78.8848V458.562ZM88.0996 458.856H87.3955L87.2451 455.691H88.2568L88.0996 458.856ZM91.0391 455.801H92.0029V458.562H93.5205V459.383H92.0029V466H91.0391V459.383H89.7334V458.562H91.0391V455.801ZM98.4697 458.562H99.4473V459.649C99.7389 459.221 100.047 458.902 100.37 458.692C100.694 458.478 101.031 458.371 101.382 458.371C101.646 458.371 101.929 458.455 102.229 458.624L101.73 459.431C101.53 459.344 101.361 459.301 101.225 459.301C100.906 459.301 100.598 459.433 100.302 459.697C100.006 459.957 99.7799 460.363 99.625 460.914C99.5065 461.338 99.4473 462.195 99.4473 463.484V466H98.4697V458.562ZM109.305 463.532L110.111 463.956C109.847 464.476 109.542 464.895 109.195 465.214C108.849 465.533 108.459 465.777 108.026 465.945C107.593 466.109 107.104 466.191 106.557 466.191C105.344 466.191 104.396 465.795 103.713 465.002C103.029 464.204 102.688 463.304 102.688 462.302C102.688 461.358 102.977 460.518 103.556 459.779C104.289 458.84 105.271 458.371 106.502 458.371C107.769 458.371 108.781 458.852 109.537 459.813C110.075 460.493 110.348 461.34 110.357 462.356H103.672C103.69 463.222 103.966 463.933 104.499 464.489C105.032 465.041 105.691 465.316 106.475 465.316C106.853 465.316 107.22 465.25 107.575 465.118C107.935 464.986 108.241 464.811 108.491 464.592C108.742 464.373 109.013 464.02 109.305 463.532ZM109.305 461.529C109.177 461.019 108.99 460.611 108.744 460.306C108.503 460 108.181 459.754 107.78 459.567C107.379 459.381 106.958 459.287 106.516 459.287C105.786 459.287 105.16 459.522 104.636 459.991C104.253 460.333 103.964 460.846 103.768 461.529H109.305ZM119.367 460.107L118.608 460.579C117.952 459.709 117.057 459.273 115.922 459.273C115.015 459.273 114.261 459.565 113.659 460.148C113.062 460.732 112.764 461.44 112.764 462.274C112.764 462.817 112.9 463.327 113.174 463.806C113.452 464.284 113.83 464.656 114.309 464.92C114.792 465.184 115.332 465.316 115.929 465.316C117.022 465.316 117.916 464.881 118.608 464.011L119.367 464.51C119.012 465.043 118.533 465.458 117.932 465.754C117.335 466.046 116.653 466.191 115.888 466.191C114.712 466.191 113.737 465.818 112.962 465.07C112.187 464.323 111.8 463.414 111.8 462.343C111.8 461.623 111.98 460.955 112.34 460.34C112.704 459.72 113.203 459.237 113.837 458.891C114.47 458.544 115.179 458.371 115.963 458.371C116.455 458.371 116.929 458.446 117.385 458.597C117.845 458.747 118.235 458.943 118.554 459.185C118.873 459.426 119.144 459.734 119.367 460.107ZM127.475 463.532L128.281 463.956C128.017 464.476 127.712 464.895 127.365 465.214C127.019 465.533 126.629 465.777 126.196 465.945C125.763 466.109 125.273 466.191 124.727 466.191C123.514 466.191 122.566 465.795 121.883 465.002C121.199 464.204 120.857 463.304 120.857 462.302C120.857 461.358 121.147 460.518 121.726 459.779C122.459 458.84 123.441 458.371 124.672 458.371C125.939 458.371 126.951 458.852 127.707 459.813C128.245 460.493 128.518 461.34 128.527 462.356H121.842C121.86 463.222 122.136 463.933 122.669 464.489C123.202 465.041 123.861 465.316 124.645 465.316C125.023 465.316 125.39 465.25 125.745 465.118C126.105 464.986 126.41 464.811 126.661 464.592C126.912 464.373 127.183 464.02 127.475 463.532ZM127.475 461.529C127.347 461.019 127.16 460.611 126.914 460.306C126.673 460 126.351 459.754 125.95 459.567C125.549 459.381 125.128 459.287 124.686 459.287C123.956 459.287 123.33 459.522 122.806 459.991C122.423 460.333 122.133 460.846 121.938 461.529H127.475ZM130.653 455.5C130.872 455.5 131.059 455.577 131.214 455.732C131.369 455.887 131.446 456.074 131.446 456.293C131.446 456.507 131.369 456.692 131.214 456.847C131.059 457.002 130.872 457.079 130.653 457.079C130.439 457.079 130.255 457.002 130.1 456.847C129.945 456.692 129.867 456.507 129.867 456.293C129.867 456.074 129.945 455.887 130.1 455.732C130.255 455.577 130.439 455.5 130.653 455.5ZM130.175 458.562H131.139V466H130.175V458.562ZM132.417 458.562H133.436L135.924 463.977L138.392 458.562H139.417L136.013 466H135.842L132.417 458.562ZM147.148 463.532L147.955 463.956C147.691 464.476 147.385 464.895 147.039 465.214C146.693 465.533 146.303 465.777 145.87 465.945C145.437 466.109 144.947 466.191 144.4 466.191C143.188 466.191 142.24 465.795 141.557 465.002C140.873 464.204 140.531 463.304 140.531 462.302C140.531 461.358 140.821 460.518 141.399 459.779C142.133 458.84 143.115 458.371 144.346 458.371C145.613 458.371 146.624 458.852 147.381 459.813C147.919 460.493 148.192 461.34 148.201 462.356H141.516C141.534 463.222 141.81 463.933 142.343 464.489C142.876 465.041 143.535 465.316 144.318 465.316C144.697 465.316 145.063 465.25 145.419 465.118C145.779 464.986 146.084 464.811 146.335 464.592C146.586 464.373 146.857 464.02 147.148 463.532ZM147.148 461.529C147.021 461.019 146.834 460.611 146.588 460.306C146.346 460 146.025 459.754 145.624 459.567C145.223 459.381 144.801 459.287 144.359 459.287C143.63 459.287 143.004 459.522 142.479 459.991C142.097 460.333 141.807 460.846 141.611 461.529H147.148ZM154.709 455.801H155.673V458.562H157.19V459.383H155.673V466H154.709V459.383H153.403V458.562H154.709V455.801ZM158.619 455.691H159.576V459.896C159.964 459.385 160.39 459.005 160.854 458.754C161.319 458.499 161.823 458.371 162.365 458.371C162.921 458.371 163.413 458.512 163.842 458.795C164.275 459.077 164.594 459.458 164.799 459.937C165.004 460.41 165.106 461.156 165.106 462.172V466H164.149V462.452C164.149 461.595 164.115 461.023 164.047 460.736C163.928 460.244 163.712 459.875 163.397 459.629C163.088 459.378 162.68 459.253 162.174 459.253C161.595 459.253 161.076 459.444 160.615 459.827C160.16 460.21 159.859 460.684 159.713 461.249C159.622 461.614 159.576 462.288 159.576 463.272V466H158.619V455.691ZM173.426 463.532L174.232 463.956C173.968 464.476 173.663 464.895 173.316 465.214C172.97 465.533 172.58 465.777 172.147 465.945C171.715 466.109 171.225 466.191 170.678 466.191C169.465 466.191 168.518 465.795 167.834 465.002C167.15 464.204 166.809 463.304 166.809 462.302C166.809 461.358 167.098 460.518 167.677 459.779C168.41 458.84 169.393 458.371 170.623 458.371C171.89 458.371 172.902 458.852 173.658 459.813C174.196 460.493 174.469 461.34 174.479 462.356H167.793C167.811 463.222 168.087 463.933 168.62 464.489C169.153 465.041 169.812 465.316 170.596 465.316C170.974 465.316 171.341 465.25 171.696 465.118C172.056 464.986 172.362 464.811 172.612 464.592C172.863 464.373 173.134 464.02 173.426 463.532ZM173.426 461.529C173.298 461.019 173.111 460.611 172.865 460.306C172.624 460 172.302 459.754 171.901 459.567C171.5 459.381 171.079 459.287 170.637 459.287C169.908 459.287 169.281 459.522 168.757 459.991C168.374 460.333 168.085 460.846 167.889 461.529H173.426ZM187.371 460.107L186.612 460.579C185.956 459.709 185.061 459.273 183.926 459.273C183.019 459.273 182.265 459.565 181.663 460.148C181.066 460.732 180.768 461.44 180.768 462.274C180.768 462.817 180.904 463.327 181.178 463.806C181.456 464.284 181.834 464.656 182.312 464.92C182.796 465.184 183.336 465.316 183.933 465.316C185.026 465.316 185.92 464.881 186.612 464.011L187.371 464.51C187.016 465.043 186.537 465.458 185.936 465.754C185.339 466.046 184.657 466.191 183.892 466.191C182.716 466.191 181.741 465.818 180.966 465.07C180.191 464.323 179.804 463.414 179.804 462.343C179.804 461.623 179.984 460.955 180.344 460.34C180.708 459.72 181.207 459.237 181.841 458.891C182.474 458.544 183.183 458.371 183.967 458.371C184.459 458.371 184.933 458.446 185.389 458.597C185.849 458.747 186.239 458.943 186.558 459.185C186.877 459.426 187.148 459.734 187.371 460.107ZM192.737 458.371C193.881 458.371 194.829 458.786 195.581 459.615C196.265 460.372 196.606 461.267 196.606 462.302C196.606 463.341 196.244 464.25 195.52 465.029C194.799 465.804 193.872 466.191 192.737 466.191C191.598 466.191 190.666 465.804 189.941 465.029C189.221 464.25 188.861 463.341 188.861 462.302C188.861 461.272 189.203 460.379 189.887 459.622C190.639 458.788 191.589 458.371 192.737 458.371ZM192.737 459.308C191.944 459.308 191.263 459.602 190.693 460.189C190.124 460.777 189.839 461.488 189.839 462.322C189.839 462.86 189.969 463.361 190.229 463.826C190.488 464.291 190.839 464.651 191.281 464.906C191.723 465.157 192.209 465.282 192.737 465.282C193.266 465.282 193.751 465.157 194.193 464.906C194.635 464.651 194.986 464.291 195.246 463.826C195.506 463.361 195.636 462.86 195.636 462.322C195.636 461.488 195.349 460.777 194.774 460.189C194.205 459.602 193.526 459.308 192.737 459.308ZM205.814 455.691V466H204.871V464.722C204.47 465.209 204.019 465.576 203.518 465.822C203.021 466.068 202.476 466.191 201.884 466.191C200.831 466.191 199.931 465.811 199.184 465.05C198.441 464.284 198.069 463.354 198.069 462.261C198.069 461.19 198.445 460.274 199.197 459.513C199.949 458.752 200.854 458.371 201.911 458.371C202.522 458.371 203.073 458.501 203.565 458.761C204.062 459.021 204.497 459.41 204.871 459.93V455.691H205.814ZM201.986 459.294C201.453 459.294 200.961 459.426 200.51 459.69C200.059 459.95 199.699 460.317 199.43 460.791C199.165 461.265 199.033 461.766 199.033 462.295C199.033 462.819 199.168 463.32 199.437 463.799C199.705 464.277 200.065 464.651 200.517 464.92C200.972 465.184 201.46 465.316 201.979 465.316C202.504 465.316 203 465.184 203.47 464.92C203.939 464.656 204.299 464.298 204.55 463.847C204.805 463.396 204.933 462.887 204.933 462.322C204.933 461.461 204.648 460.741 204.078 460.162C203.513 459.583 202.816 459.294 201.986 459.294ZM214.25 463.532L215.057 463.956C214.792 464.476 214.487 464.895 214.141 465.214C213.794 465.533 213.405 465.777 212.972 465.945C212.539 466.109 212.049 466.191 211.502 466.191C210.29 466.191 209.342 465.795 208.658 465.002C207.975 464.204 207.633 463.304 207.633 462.302C207.633 461.358 207.922 460.518 208.501 459.779C209.235 458.84 210.217 458.371 211.447 458.371C212.714 458.371 213.726 458.852 214.482 459.813C215.02 460.493 215.294 461.34 215.303 462.356H208.617C208.635 463.222 208.911 463.933 209.444 464.489C209.978 465.041 210.636 465.316 211.42 465.316C211.798 465.316 212.165 465.25 212.521 465.118C212.881 464.986 213.186 464.811 213.437 464.592C213.687 464.373 213.958 464.02 214.25 463.532ZM214.25 461.529C214.122 461.019 213.936 460.611 213.689 460.306C213.448 460 213.127 459.754 212.726 459.567C212.325 459.381 211.903 459.287 211.461 459.287C210.732 459.287 210.105 459.522 209.581 459.991C209.198 460.333 208.909 460.846 208.713 461.529H214.25ZM218.181 458.679H217.189C217.199 457.758 217.472 457.031 218.01 456.498C218.552 455.96 219.277 455.691 220.184 455.691C221.077 455.691 221.779 455.917 222.289 456.368C222.799 456.819 223.055 457.38 223.055 458.05C223.055 458.369 222.984 458.665 222.843 458.938C222.706 459.207 222.496 459.451 222.214 459.67C221.931 459.884 221.437 460.13 220.73 460.408C219.842 460.764 219.304 461.028 219.117 461.201C218.926 461.379 218.83 461.593 218.83 461.844C218.83 462.108 218.958 462.345 219.213 462.555C219.473 462.764 219.808 462.869 220.218 462.869C220.669 462.869 221.015 462.755 221.257 462.527C221.498 462.295 221.646 461.926 221.701 461.42H222.699C222.667 462.181 222.43 462.773 221.988 463.197C221.551 463.617 220.961 463.826 220.218 463.826C219.479 463.826 218.892 463.635 218.454 463.252C218.017 462.869 217.798 462.397 217.798 461.837C217.798 461.563 217.857 461.306 217.976 461.064C218.099 460.818 218.27 460.613 218.488 460.449C218.712 460.285 219.129 460.078 219.739 459.827C220.724 459.426 221.355 459.125 221.633 458.925C221.906 458.724 222.043 458.437 222.043 458.063C222.043 457.667 221.874 457.332 221.537 457.059C221.204 456.785 220.758 456.648 220.197 456.648C219.514 456.648 218.983 456.874 218.604 457.325C218.34 457.64 218.199 458.091 218.181 458.679ZM220.177 464.496C220.409 464.496 220.607 464.578 220.771 464.742C220.936 464.906 221.018 465.107 221.018 465.344C221.018 465.576 220.936 465.777 220.771 465.945C220.607 466.109 220.409 466.191 220.177 466.191C219.944 466.191 219.746 466.109 219.582 465.945C219.418 465.777 219.336 465.576 219.336 465.344C219.336 465.107 219.418 464.906 219.582 464.742C219.746 464.578 219.944 464.496 220.177 464.496Z" fill="black"/>
<path d="M229.46 455.944H231.49C232.602 455.944 233.393 456.045 233.862 456.245C234.336 456.441 234.717 456.769 235.004 457.229C235.291 457.69 235.435 458.234 235.435 458.863C235.435 459.524 235.275 460.078 234.956 460.524C234.642 460.966 234.165 461.301 233.527 461.529L235.906 466H233.814L231.552 461.741H231.374V466H229.46V455.944ZM231.374 459.875H231.976C232.586 459.875 233.006 459.795 233.233 459.636C233.466 459.476 233.582 459.212 233.582 458.843C233.582 458.624 233.525 458.435 233.411 458.275C233.297 458.111 233.145 457.995 232.953 457.927C232.762 457.854 232.411 457.817 231.9 457.817H231.374V459.875ZM244.697 462.821H238.702C238.789 463.35 239.019 463.771 239.393 464.086C239.771 464.396 240.252 464.551 240.835 464.551C241.532 464.551 242.132 464.307 242.633 463.819L244.205 464.558C243.813 465.114 243.344 465.526 242.797 465.795C242.25 466.059 241.601 466.191 240.849 466.191C239.682 466.191 238.732 465.825 237.998 465.091C237.264 464.353 236.897 463.43 236.897 462.322C236.897 461.188 237.262 460.246 237.991 459.499C238.725 458.747 239.643 458.371 240.746 458.371C241.917 458.371 242.87 458.747 243.604 459.499C244.337 460.246 244.704 461.235 244.704 462.466L244.697 462.821ZM242.824 461.352C242.701 460.937 242.457 460.6 242.093 460.34C241.733 460.08 241.313 459.95 240.835 459.95C240.315 459.95 239.86 460.096 239.468 460.388C239.222 460.57 238.994 460.891 238.784 461.352H242.824ZM250.768 459.602L249.612 460.757C249.143 460.292 248.717 460.06 248.334 460.06C248.124 460.06 247.96 460.105 247.842 460.196C247.723 460.283 247.664 460.392 247.664 460.524C247.664 460.625 247.701 460.718 247.773 460.805C247.851 460.887 248.038 461.001 248.334 461.146L249.018 461.488C249.738 461.844 250.232 462.206 250.501 462.575C250.77 462.944 250.904 463.377 250.904 463.874C250.904 464.535 250.66 465.086 250.173 465.528C249.69 465.97 249.04 466.191 248.225 466.191C247.14 466.191 246.274 465.768 245.627 464.92L246.775 463.669C246.994 463.924 247.249 464.132 247.541 464.291C247.837 464.446 248.099 464.523 248.327 464.523C248.573 464.523 248.771 464.464 248.922 464.346C249.072 464.227 249.147 464.09 249.147 463.936C249.147 463.648 248.876 463.368 248.334 463.095L247.705 462.78C246.502 462.174 245.9 461.415 245.9 460.504C245.9 459.916 246.126 459.415 246.577 459C247.033 458.581 247.614 458.371 248.32 458.371C248.803 458.371 249.257 458.478 249.681 458.692C250.109 458.902 250.471 459.205 250.768 459.602ZM259.832 462.821H253.837C253.924 463.35 254.154 463.771 254.527 464.086C254.906 464.396 255.386 464.551 255.97 464.551C256.667 464.551 257.266 464.307 257.768 463.819L259.34 464.558C258.948 465.114 258.479 465.526 257.932 465.795C257.385 466.059 256.735 466.191 255.983 466.191C254.817 466.191 253.867 465.825 253.133 465.091C252.399 464.353 252.032 463.43 252.032 462.322C252.032 461.188 252.397 460.246 253.126 459.499C253.86 458.747 254.778 458.371 255.881 458.371C257.052 458.371 258.005 458.747 258.738 459.499C259.472 460.246 259.839 461.235 259.839 462.466L259.832 462.821ZM257.959 461.352C257.836 460.937 257.592 460.6 257.228 460.34C256.868 460.08 256.448 459.95 255.97 459.95C255.45 459.95 254.994 460.096 254.603 460.388C254.356 460.57 254.129 460.891 253.919 461.352H257.959ZM261.35 458.562H263.209V459.321C263.633 458.966 264.016 458.72 264.357 458.583C264.704 458.442 265.057 458.371 265.417 458.371C266.155 458.371 266.782 458.629 267.297 459.144C267.73 459.581 267.946 460.228 267.946 461.085V466H266.101V462.739C266.101 461.851 266.06 461.26 265.978 460.969C265.9 460.677 265.761 460.456 265.561 460.306C265.365 460.151 265.121 460.073 264.829 460.073C264.451 460.073 264.125 460.201 263.852 460.456C263.583 460.707 263.396 461.055 263.291 461.502C263.236 461.734 263.209 462.238 263.209 463.013V466H261.35V458.562ZM275.254 455.691H277.113V466H275.254V465.214C274.889 465.56 274.522 465.811 274.153 465.966C273.789 466.116 273.392 466.191 272.964 466.191C272.002 466.191 271.171 465.82 270.469 465.077C269.767 464.33 269.416 463.402 269.416 462.295C269.416 461.146 269.756 460.205 270.435 459.472C271.114 458.738 271.938 458.371 272.909 458.371C273.356 458.371 273.775 458.455 274.167 458.624C274.559 458.793 274.921 459.046 275.254 459.383V455.691ZM273.292 460.094C272.713 460.094 272.232 460.299 271.85 460.709C271.467 461.115 271.275 461.636 271.275 462.274C271.275 462.917 271.469 463.446 271.856 463.86C272.248 464.275 272.729 464.482 273.299 464.482C273.887 464.482 274.374 464.28 274.762 463.874C275.149 463.464 275.343 462.928 275.343 462.268C275.343 461.62 275.149 461.096 274.762 460.695C274.374 460.294 273.884 460.094 273.292 460.094ZM292.371 457.715L291.031 458.993C290.12 458.032 289.094 457.551 287.955 457.551C286.993 457.551 286.182 457.879 285.521 458.535C284.865 459.191 284.537 460 284.537 460.962C284.537 461.632 284.683 462.227 284.975 462.746C285.266 463.266 285.679 463.674 286.212 463.97C286.745 464.266 287.338 464.414 287.989 464.414C288.545 464.414 289.053 464.312 289.514 464.106C289.974 463.897 290.48 463.519 291.031 462.972L292.33 464.325C291.587 465.05 290.885 465.553 290.225 465.836C289.564 466.114 288.81 466.253 287.962 466.253C286.399 466.253 285.118 465.758 284.12 464.77C283.127 463.776 282.63 462.505 282.63 460.955C282.63 459.952 282.855 459.062 283.307 458.282C283.762 457.503 284.412 456.876 285.255 456.402C286.103 455.928 287.014 455.691 287.989 455.691C288.819 455.691 289.616 455.867 290.382 456.218C291.152 456.569 291.815 457.068 292.371 457.715ZM297.341 458.371C298.043 458.371 298.701 458.547 299.316 458.897C299.936 459.248 300.419 459.725 300.766 460.326C301.112 460.928 301.285 461.577 301.285 462.274C301.285 462.976 301.11 463.632 300.759 464.243C300.412 464.854 299.938 465.332 299.337 465.679C298.735 466.021 298.072 466.191 297.348 466.191C296.281 466.191 295.37 465.813 294.613 465.057C293.861 464.296 293.485 463.373 293.485 462.288C293.485 461.126 293.911 460.158 294.764 459.383C295.511 458.708 296.37 458.371 297.341 458.371ZM297.368 460.128C296.789 460.128 296.306 460.331 295.919 460.736C295.536 461.137 295.345 461.652 295.345 462.281C295.345 462.928 295.534 463.452 295.912 463.854C296.295 464.255 296.778 464.455 297.361 464.455C297.945 464.455 298.43 464.252 298.817 463.847C299.205 463.441 299.398 462.919 299.398 462.281C299.398 461.643 299.207 461.126 298.824 460.729C298.446 460.328 297.961 460.128 297.368 460.128ZM308.312 455.691H310.172V466H308.312V465.214C307.948 465.56 307.581 465.811 307.212 465.966C306.847 466.116 306.451 466.191 306.022 466.191C305.061 466.191 304.229 465.82 303.527 465.077C302.826 464.33 302.475 463.402 302.475 462.295C302.475 461.146 302.814 460.205 303.493 459.472C304.172 458.738 304.997 458.371 305.968 458.371C306.414 458.371 306.834 458.455 307.226 458.624C307.618 458.793 307.98 459.046 308.312 459.383V455.691ZM306.351 460.094C305.772 460.094 305.291 460.299 304.908 460.709C304.525 461.115 304.334 461.636 304.334 462.274C304.334 462.917 304.528 463.446 304.915 463.86C305.307 464.275 305.788 464.482 306.357 464.482C306.945 464.482 307.433 464.28 307.82 463.874C308.208 463.464 308.401 462.928 308.401 462.268C308.401 461.62 308.208 461.096 307.82 460.695C307.433 460.294 306.943 460.094 306.351 460.094ZM319.51 462.821H313.515C313.601 463.35 313.831 463.771 314.205 464.086C314.583 464.396 315.064 464.551 315.647 464.551C316.345 464.551 316.944 464.307 317.445 463.819L319.018 464.558C318.626 465.114 318.156 465.526 317.609 465.795C317.062 466.059 316.413 466.191 315.661 466.191C314.494 466.191 313.544 465.825 312.811 465.091C312.077 464.353 311.71 463.43 311.71 462.322C311.71 461.188 312.075 460.246 312.804 459.499C313.537 458.747 314.456 458.371 315.559 458.371C316.73 458.371 317.682 458.747 318.416 459.499C319.15 460.246 319.517 461.235 319.517 462.466L319.51 462.821ZM317.637 461.352C317.514 460.937 317.27 460.6 316.905 460.34C316.545 460.08 316.126 459.95 315.647 459.95C315.128 459.95 314.672 460.096 314.28 460.388C314.034 460.57 313.806 460.891 313.597 461.352H317.637Z" fill="#A7192F"/>
<path d="M55.7988 381.18H53.1719C53.3086 380.118 53.6895 379.266 54.3145 378.621C55.1868 377.723 56.2839 377.273 57.6055 377.273C58.7839 377.273 59.7702 377.648 60.5645 378.396C61.3652 379.145 61.7656 380.034 61.7656 381.062C61.7656 381.701 61.5898 382.283 61.2383 382.811C60.8932 383.338 60.3887 383.764 59.7246 384.09C60.597 384.35 61.2773 384.806 61.7656 385.457C62.2604 386.102 62.5078 386.863 62.5078 387.742C62.5078 389.031 62.0326 390.125 61.082 391.023C60.1315 391.915 58.9206 392.361 57.4492 392.361C56.056 392.361 54.9199 391.941 54.041 391.102C53.1621 390.255 52.6803 389.106 52.5957 387.654H55.3008C55.418 388.396 55.6751 388.95 56.0723 389.314C56.4759 389.673 56.9837 389.852 57.5957 389.852C58.2337 389.852 58.7611 389.646 59.1777 389.236C59.6009 388.826 59.8125 388.325 59.8125 387.732C59.8125 387.081 59.5293 386.531 58.9629 386.082C58.3965 385.633 57.5794 385.402 56.5117 385.389V383.045C57.1693 382.993 57.6576 382.892 57.9766 382.742C58.3021 382.586 58.5527 382.374 58.7285 382.107C58.9108 381.84 59.002 381.557 59.002 381.258C59.002 380.867 58.8652 380.545 58.5918 380.291C58.3184 380.031 57.9603 379.9 57.5176 379.9C57.127 379.9 56.7721 380.021 56.4531 380.262C56.1341 380.496 55.916 380.802 55.7988 381.18Z" fill="#404040"/>
<rect x="36.5" y="358.5" width="43" height="51" rx="1.5" stroke="#E0E0E0"/>
<path d="M36 408H80C80 409.105 79.1046 410 78 410H38C36.8954 410 36 409.105 36 408Z" fill="#A10A21"/>
<path d="M107.34 377.635H114.068V380.154H109.381L108.795 382.771C108.958 382.726 109.117 382.693 109.273 382.674C109.43 382.648 109.579 382.635 109.723 382.635C111.025 382.635 112.105 383.081 112.965 383.973C113.831 384.858 114.264 385.994 114.264 387.381C114.264 388.781 113.785 389.962 112.828 390.926C111.878 391.883 110.719 392.361 109.352 392.361C108.128 392.361 107.076 392.013 106.197 391.316C105.318 390.62 104.742 389.666 104.469 388.455H107.34C107.561 388.904 107.851 389.246 108.209 389.48C108.574 389.708 108.974 389.822 109.41 389.822C110.016 389.822 110.53 389.604 110.953 389.168C111.376 388.732 111.588 388.172 111.588 387.488C111.588 386.824 111.389 386.281 110.992 385.857C110.602 385.428 110.126 385.213 109.566 385.213C109.267 385.213 108.971 385.288 108.678 385.438C108.391 385.587 108.108 385.812 107.828 386.111L105.602 385.613L107.34 377.635Z" fill="#404040"/>
<rect x="88.5" y="358.5" width="43" height="51" rx="1.5" stroke="#E0E0E0"/>
<path d="M88 408H132C132 409.105 131.105 410 130 410H90C88.8954 410 88 409.105 88 408Z" fill="#A10A21"/>
<path d="M159.799 381.18H157.172C157.309 380.118 157.689 379.266 158.314 378.621C159.187 377.723 160.284 377.273 161.605 377.273C162.784 377.273 163.77 377.648 164.564 378.396C165.365 379.145 165.766 380.034 165.766 381.062C165.766 381.701 165.59 382.283 165.238 382.811C164.893 383.338 164.389 383.764 163.725 384.09C164.597 384.35 165.277 384.806 165.766 385.457C166.26 386.102 166.508 386.863 166.508 387.742C166.508 389.031 166.033 390.125 165.082 391.023C164.132 391.915 162.921 392.361 161.449 392.361C160.056 392.361 158.92 391.941 158.041 391.102C157.162 390.255 156.68 389.106 156.596 387.654H159.301C159.418 388.396 159.675 388.95 160.072 389.314C160.476 389.673 160.984 389.852 161.596 389.852C162.234 389.852 162.761 389.646 163.178 389.236C163.601 388.826 163.812 388.325 163.812 387.732C163.812 387.081 163.529 386.531 162.963 386.082C162.396 385.633 161.579 385.402 160.512 385.389V383.045C161.169 382.993 161.658 382.892 161.977 382.742C162.302 382.586 162.553 382.374 162.729 382.107C162.911 381.84 163.002 381.557 163.002 381.258C163.002 380.867 162.865 380.545 162.592 380.291C162.318 380.031 161.96 379.9 161.518 379.9C161.127 379.9 160.772 380.021 160.453 380.262C160.134 380.496 159.916 380.802 159.799 381.18Z" fill="#404040"/>
<rect x="140.5" y="358.5" width="43" height="51" rx="1.5" stroke="#E0E0E0"/>
<path d="M140 408H184C184 409.105 183.105 410 182 410H142C140.895 410 140 409.105 140 408Z" fill="#A10A21"/>
<path d="M263.34 377.635H270.068V380.154H265.381L264.795 382.771C264.958 382.726 265.117 382.693 265.273 382.674C265.43 382.648 265.579 382.635 265.723 382.635C267.025 382.635 268.105 383.081 268.965 383.973C269.831 384.858 270.264 385.994 270.264 387.381C270.264 388.781 269.785 389.962 268.828 390.926C267.878 391.883 266.719 392.361 265.352 392.361C264.128 392.361 263.076 392.013 262.197 391.316C261.318 390.62 260.742 389.666 260.469 388.455H263.34C263.561 388.904 263.851 389.246 264.209 389.48C264.574 389.708 264.974 389.822 265.41 389.822C266.016 389.822 266.53 389.604 266.953 389.168C267.376 388.732 267.588 388.172 267.588 387.488C267.588 386.824 267.389 386.281 266.992 385.857C266.602 385.428 266.126 385.213 265.566 385.213C265.267 385.213 264.971 385.288 264.678 385.438C264.391 385.587 264.108 385.812 263.828 386.111L261.602 385.613L263.34 377.635Z" fill="#404040"/>
<rect x="244.5" y="358.5" width="43" height="51" rx="1.5" stroke="#E0E0E0"/>
<path d="M244 408H288C288 409.105 287.105 410 286 410H246C244.895 410 244 409.105 244 408Z" fill="#A10A21"/>
<path d="M213.621 377.273H216.355V386.521H217.635V389.051H216.355V392H213.68V389.051H207.41V386.521L213.621 377.273ZM213.68 386.521V381.707L210.398 386.521H213.68Z" fill="#404040"/>
<rect x="192.5" y="358.5" width="43" height="51" rx="1.5" stroke="#E0E0E0"/>
<path d="M192 408H236C236 409.105 235.105 410 234 410H194C192.895 410 192 409.105 192 408Z" fill="#A10A21"/>
<path d="M317.621 377.273H320.355V386.521H321.635V389.051H320.355V392H317.68V389.051H311.41V386.521L317.621 377.273ZM317.68 386.521V381.707L314.398 386.521H317.68Z" fill="#404040"/>
<rect x="296.5" y="358.5" width="43" height="51" rx="1.5" stroke="#E0E0E0"/>
<path d="M296 408H340C340 409.105 339.105 410 338 410H298C296.895 410 296 409.105 296 408Z" fill="#A10A21"/>
<circle cx="188" cy="184" r="41" stroke="#E0E0E0" stroke-width="2"/>
<path fill-rule="evenodd" clip-rule="evenodd" d="M188.86 167.616C188.377 167.16 187.623 167.16 187.14 167.616C183.779 170.8 179.244 172.75 174.25 172.75C174.171 172.75 174.091 172.75 174.012 172.749C173.466 172.742 172.979 173.09 172.809 173.608C172.121 175.699 171.75 177.933 171.75 180.25C171.75 190.154 178.523 198.472 187.688 200.831C187.893 200.883 188.107 200.883 188.312 200.831C197.477 198.472 204.25 190.154 204.25 180.25C204.25 177.933 203.879 175.699 203.191 173.608C203.021 173.09 202.534 172.742 201.988 172.749C201.909 172.75 201.829 172.75 201.75 172.75C196.756 172.75 192.221 170.8 188.86 167.616ZM194.017 180.977C194.418 180.415 194.288 179.634 193.727 179.233C193.165 178.832 192.384 178.962 191.983 179.523L186.59 187.073L183.884 184.366C183.396 183.878 182.604 183.878 182.116 184.366C181.628 184.854 181.628 185.646 182.116 186.134L185.866 189.884C186.126 190.144 186.487 190.276 186.853 190.246C187.219 190.215 187.554 190.026 187.767 189.727L194.017 180.977Z" fill="#B63F52"/>
<rect x="16" y="726" width="343" height="44" rx="2" fill="#A7192F"/>
<path d="M165.438 742.508H167.688L170.578 750.672L173.508 742.508H175.758L171.617 754H169.508L165.438 742.508ZM185.797 750.367H178.945C179.044 750.971 179.307 751.453 179.734 751.812C180.167 752.167 180.716 752.344 181.383 752.344C182.18 752.344 182.865 752.065 183.438 751.508L185.234 752.352C184.786 752.987 184.25 753.458 183.625 753.766C183 754.068 182.258 754.219 181.398 754.219C180.065 754.219 178.979 753.799 178.141 752.961C177.302 752.117 176.883 751.062 176.883 749.797C176.883 748.5 177.299 747.424 178.133 746.57C178.971 745.711 180.021 745.281 181.281 745.281C182.62 745.281 183.708 745.711 184.547 746.57C185.385 747.424 185.805 748.555 185.805 749.961L185.797 750.367ZM183.656 748.688C183.516 748.214 183.237 747.828 182.82 747.531C182.409 747.234 181.93 747.086 181.383 747.086C180.789 747.086 180.268 747.253 179.82 747.586C179.539 747.794 179.279 748.161 179.039 748.688H183.656ZM187.031 745.5H188.859V746.57C189.057 746.148 189.32 745.828 189.648 745.609C189.977 745.391 190.336 745.281 190.727 745.281C191.003 745.281 191.292 745.354 191.594 745.5L190.93 747.336C190.68 747.211 190.474 747.148 190.312 747.148C189.984 747.148 189.706 747.352 189.477 747.758C189.253 748.164 189.141 748.961 189.141 750.148L189.148 750.562V754H187.031V745.5ZM193.492 742C193.867 742 194.188 742.135 194.453 742.406C194.724 742.677 194.859 743.005 194.859 743.391C194.859 743.771 194.727 744.096 194.461 744.367C194.195 744.633 193.878 744.766 193.508 744.766C193.128 744.766 192.802 744.63 192.531 744.359C192.266 744.083 192.133 743.75 192.133 743.359C192.133 742.984 192.266 742.664 192.531 742.398C192.797 742.133 193.117 742 193.492 742ZM192.422 745.5H194.562V754H192.422V745.5ZM195.484 745.5H196.242C196.247 744.385 196.266 743.727 196.297 743.523C196.354 743.055 196.549 742.685 196.883 742.414C197.221 742.138 197.698 742 198.312 742C198.755 742 199.255 742.102 199.812 742.305V743.93C199.505 743.841 199.253 743.797 199.055 743.797C198.805 743.797 198.622 743.849 198.508 743.953C198.424 744.031 198.383 744.193 198.383 744.438L198.375 745.5H199.727V747.312H198.375V754H196.242V747.312H195.484V745.5ZM200.039 745.5H202.219L204.43 750.836L206.867 745.5H209.055L203.727 757.109H201.523L203.273 753.367L200.039 745.5Z" fill="white"/>
</svg>
