<svg width="40" height="40" viewBox="0 0 40 40" xmlns="http://www.w3.org/2000/svg">
<path d="M9.76378 1C9.76378 0.447715 9.31607 0 8.76378 0H1C0.447715 0 0 0.447715 0 1V23.8819C0 24.4342 0.447714 24.8819 0.999998 24.8819H8.76378C9.31606 24.8819 9.76378 24.4342 9.76378 23.8819V1Z"/>
<path d="M16.1181 15.1181C15.5658 15.1181 15.1181 15.5658 15.1181 16.1181V23.8819C15.1181 24.4342 15.5658 24.8819 16.1181 24.8819H23.8819C24.4342 24.8819 24.8819 24.4342 24.8819 23.8819V16.1181C24.8819 15.5658 24.4342 15.1181 23.8819 15.1181H16.1181Z"/>
<path d="M16.1181 9.76378C15.5658 9.76378 15.1181 9.31606 15.1181 8.76378V0.999998C15.1181 0.447714 15.5658 0 16.1181 0H39C39.5523 0 40 0.447715 40 1V8.76378C40 9.31607 39.5523 9.76378 39 9.76378H16.1181Z"/>
<path d="M31.2362 15.1181C30.6839 15.1181 30.2362 15.5658 30.2362 16.1181V39C30.2362 39.5523 30.6839 40 31.2362 40H39C39.5523 40 40 39.5523 40 39V16.1181C40 15.5658 39.5523 15.1181 39 15.1181H31.2362Z"/>
<path d="M23.8819 40C24.4342 40 24.8819 39.5523 24.8819 39V31.2362C24.8819 30.6839 24.4342 30.2362 23.8819 30.2362H1C0.447715 30.2362 0 30.6839 0 31.2362V39C0 39.5523 0.447715 40 1 40H23.8819Z"/>
</svg>
